<svg width="650" height="1020" xmlns="http://www.w3.org/2000/svg" version="1.1"><g transform="translate(0, 10)"><g class="links" fill="none" stroke-opacity="0.4"><path d="M6,518.0899999999999C164,518.0899999999999,164,777.8100000000004,322,777.8100000000004" style="stroke: rgb(55, 126, 184);" stroke-width="14.74"></path><path d="M6,563.65C164,563.65,164,833.3700000000005,322,833.3700000000005" style="stroke: rgb(55, 126, 184);" stroke-width="76.38000000000001"></path><path d="M6,630.6499999999999C164,630.6499999999999,164,910.3700000000006,322,910.3700000000006" style="stroke: rgb(55, 126, 184);" stroke-width="57.620000000000005"></path><path d="M6,500.6699999999999C164,500.6699999999999,164,736.37,322,736.37" style="stroke: rgb(55, 126, 184);" stroke-width="4.0200000000000005"></path><path d="M6,674.8699999999999C164,674.8699999999999,164,964.5900000000001,322,964.5900000000001" style="stroke: rgb(55, 126, 184);" stroke-width="30.82"></path><path d="M6,496.65C164,496.65,164,81.48999999999988,322,81.48999999999988" style="stroke: rgb(55, 126, 184);" stroke-width="1.34"></path><path d="M6,506.6999999999999C164,506.6999999999999,164,755.0800000000003,322,755.0800000000003" style="stroke: rgb(55, 126, 184);" stroke-width="8.040000000000001"></path><path d="M6,497.98999999999995C164,497.98999999999995,164,583.2899999999997,322,583.2899999999997" style="stroke: rgb(55, 126, 184);" stroke-width="1.34"></path><path d="M6,457.16999999999996C164,457.16999999999996,164,20.669999999999604,322,20.669999999999604" style="stroke: rgb(228, 26, 28);" stroke-width="1.34"></path><path d="M6,460.5199999999999C164,460.5199999999999,164,36.69999999999975,322,36.69999999999975" style="stroke: rgb(228, 26, 28);" stroke-width="5.36"></path><path d="M6,472.5799999999999C164,472.5799999999999,164,79.47999999999988,322,79.47999999999988" style="stroke: rgb(228, 26, 28);" stroke-width="2.68"></path><path d="M6,474.59C164,474.59,164,110.25000000000006,322,110.25000000000006" style="stroke: rgb(228, 26, 28);" stroke-width="1.34"></path><path d="M6,475.92999999999995C164,475.92999999999995,164,196.5300000000002,322,196.5300000000002" style="stroke: rgb(228, 26, 28);" stroke-width="1.34"></path><path d="M6,467.2199999999999C164,467.2199999999999,164,60.09999999999986,322,60.09999999999986" style="stroke: rgb(228, 26, 28);" stroke-width="8.040000000000001"></path><path d="M6,477.9399999999999C164,477.9399999999999,164,334.40000000000015,322,334.40000000000015" style="stroke: rgb(228, 26, 28);" stroke-width="2.68"></path><path d="M6,479.94999999999993C164,479.94999999999993,164,428.0500000000002,322,428.0500000000002" style="stroke: rgb(228, 26, 28);" stroke-width="1.34"></path><path d="M6,482.6299999999999C164,482.6299999999999,164,505.66999999999996,322,505.66999999999996" style="stroke: rgb(228, 26, 28);" stroke-width="1.34"></path><path d="M6,481.2899999999999C164,481.2899999999999,164,480.9300000000002,322,480.9300000000002" style="stroke: rgb(228, 26, 28);" stroke-width="1.34"></path><path d="M6,484.6399999999998C164,484.6399999999998,164,654.88,322,654.88" style="stroke: rgb(228, 26, 28);" stroke-width="2.68"></path><path d="M6,805.4200000000001C164,805.4200000000001,164,138.34000000000012,322,138.34000000000012" style="stroke: rgb(152, 78, 163);" stroke-width="8.040000000000001"></path><path d="M6,800.0600000000002C164,800.0600000000002,164,113.60000000000007,322,113.60000000000007" style="stroke: rgb(152, 78, 163);" stroke-width="2.68"></path><path d="M6,854.3299999999999C164,854.3299999999999,164,694.3099999999998,322,694.3099999999998" style="stroke: rgb(152, 78, 163);" stroke-width="1.34"></path><path d="M6,850.98C164,850.98,164,379.2400000000001,322,379.2400000000001" style="stroke: rgb(152, 78, 163);" stroke-width="2.68"></path><path d="M6,830.21C164,830.21,164,220.65000000000023,322,220.65000000000023" style="stroke: rgb(152, 78, 163);" stroke-width="36.18"></path><path d="M6,848.9699999999999C164,848.9699999999999,164,314.3500000000002,322,314.3500000000002" style="stroke: rgb(152, 78, 163);" stroke-width="1.34"></path><path d="M6,798.0500000000001C164,798.0500000000001,164,40.04999999999975,322,40.04999999999975" style="stroke: rgb(152, 78, 163);" stroke-width="1.34"></path><path d="M6,810.7800000000001C164,810.7800000000001,164,171.1200000000002,322,171.1200000000002" style="stroke: rgb(152, 78, 163);" stroke-width="2.68"></path><path d="M6,852.9899999999999C164,852.9899999999999,164,542.4699999999999,322,542.4699999999999" style="stroke: rgb(152, 78, 163);" stroke-width="1.34"></path><path d="M6,188.54999999999998C164,188.54999999999998,164,159.7300000000002,322,159.7300000000002" style="stroke: rgb(255, 127, 0);" stroke-width="14.74"></path><path d="M6,279C164,279,164,424.70000000000016,322,424.70000000000016" style="stroke: rgb(255, 127, 0);" stroke-width="5.36"></path><path d="M6,301.11C164,301.11,164,460.83000000000015,322,460.83000000000015" style="stroke: rgb(255, 127, 0);" stroke-width="38.86"></path><path d="M6,322.55C164,322.55,164,502.98999999999995,322,502.98999999999995" style="stroke: rgb(255, 127, 0);" stroke-width="4.0200000000000005"></path><path d="M6,336.62C164,336.62,164,528.3999999999999,322,528.3999999999999" style="stroke: rgb(255, 127, 0);" stroke-width="24.12"></path><path d="M6,363.42C164,363.42,164,567.8799999999998,322,567.8799999999998" style="stroke: rgb(255, 127, 0);" stroke-width="29.48"></path><path d="M6,384.86C164,384.86,164,602,322,602" style="stroke: rgb(255, 127, 0);" stroke-width="13.4"></path><path d="M6,408.98C164,408.98,164,636.1199999999999,322,636.1199999999999" style="stroke: rgb(255, 127, 0);" stroke-width="34.84"></path><path d="M6,431.76C164,431.76,164,678.28,322,678.28" style="stroke: rgb(255, 127, 0);" stroke-width="10.72"></path><path d="M6,439.13C164,439.13,164,706.99,322,706.99" style="stroke: rgb(255, 127, 0);" stroke-width="4.0200000000000005"></path><path d="M6,441.81C164,441.81,164,719.67,322,719.67" style="stroke: rgb(255, 127, 0);" stroke-width="1.34"></path><path d="M6,154.37999999999997C164,154.37999999999997,164,76.79999999999987,322,76.79999999999987" style="stroke: rgb(255, 127, 0);" stroke-width="2.68"></path><path d="M6,232.1C164,232.1,164,282.8600000000001,322,282.8600000000001" style="stroke: rgb(255, 127, 0);" stroke-width="32.160000000000004"></path><path d="M6,146.33999999999995C164,146.33999999999995,164,32.67999999999975,322,32.67999999999975" style="stroke: rgb(255, 127, 0);" stroke-width="2.68"></path><path d="M6,260.23999999999995C164,260.23999999999995,164,357.8000000000001,322,357.8000000000001" style="stroke: rgb(255, 127, 0);" stroke-width="8.040000000000001"></path><path d="M6,212.67C164,212.67,164,252.09000000000017,322,252.09000000000017" style="stroke: rgb(255, 127, 0);" stroke-width="6.7"></path><path d="M6,252.2C164,252.2,164,329.04000000000013,322,329.04000000000013" style="stroke: rgb(255, 127, 0);" stroke-width="8.040000000000001"></path><path d="M6,444.48999999999995C164,444.48999999999995,164,732.35,322,732.35" style="stroke: rgb(255, 127, 0);" stroke-width="4.0200000000000005"></path><path d="M6,270.28999999999996C164,270.28999999999996,164,396.61000000000007,322,396.61000000000007" style="stroke: rgb(255, 127, 0);" stroke-width="12.06"></path><path d="M6,202.61999999999998C164,202.61999999999998,164,189.1600000000002,322,189.1600000000002" style="stroke: rgb(255, 127, 0);" stroke-width="13.4"></path><path d="M6,176.48999999999998C164,176.48999999999998,164,129.6300000000001,322,129.6300000000001" style="stroke: rgb(255, 127, 0);" stroke-width="9.38"></path><path d="M6,163.75999999999996C164,163.75999999999996,164,101.54000000000006,322,101.54000000000006" style="stroke: rgb(255, 127, 0);" stroke-width="16.080000000000002"></path><path d="M6,150.35999999999996C164,150.35999999999996,164,53.39999999999986,322,53.39999999999986" style="stroke: rgb(255, 127, 0);" stroke-width="5.36"></path><path d="M6,713.01C164,713.01,164,256.1100000000002,322,256.1100000000002" style="stroke: rgb(77, 175, 74);" stroke-width="1.34"></path><path d="M6,732.44C164,732.44,164,339.76000000000016,322,339.76000000000016" style="stroke: rgb(77, 175, 74);" stroke-width="8.040000000000001"></path><path d="M6,744.5C164,744.5,164,369.8600000000002,322,369.8600000000002" style="stroke: rgb(77, 175, 74);" stroke-width="16.080000000000002"></path><path d="M6,757.2300000000001C164,757.2300000000001,164,407.3300000000001,322,407.3300000000001" style="stroke: rgb(77, 175, 74);" stroke-width="9.38"></path><path d="M6,784.7000000000002C164,784.7000000000002,164,739.72,322,739.72" style="stroke: rgb(77, 175, 74);" stroke-width="2.68"></path><path d="M6,786.71C164,786.71,164,759.7700000000002,322,759.7700000000002" style="stroke: rgb(77, 175, 74);" stroke-width="1.34"></path><path d="M6,763.2600000000001C164,763.2600000000001,164,430.0600000000001,322,430.0600000000001" style="stroke: rgb(77, 175, 74);" stroke-width="2.68"></path><path d="M6,780.0100000000001C164,780.0100000000001,164,659.5699999999999,322,659.5699999999999" style="stroke: rgb(77, 175, 74);" stroke-width="6.7"></path><path d="M6,702.29C164,702.29,164,82.82999999999988,322,82.82999999999988" style="stroke: rgb(77, 175, 74);" stroke-width="1.34"></path><path d="M6,705.6400000000001C164,705.6400000000001,164,168.4400000000002,322,168.4400000000002" style="stroke: rgb(77, 175, 74);" stroke-width="2.68"></path><path d="M6,709.66C164,709.66,164,199.88000000000022,322,199.88000000000022" style="stroke: rgb(77, 175, 74);" stroke-width="5.36"></path><path d="M6,721.0500000000001C164,721.0500000000001,164,306.3100000000002,322,306.3100000000002" style="stroke: rgb(77, 175, 74);" stroke-width="14.74"></path><path d="M6,703.63C164,703.63,164,111.59000000000006,322,111.59000000000006" style="stroke: rgb(77, 175, 74);" stroke-width="1.34"></path><path d="M6,774.65C164,774.65,164,541.1299999999999,322,541.1299999999999" style="stroke: rgb(77, 175, 74);" stroke-width="1.34"></path><path d="M6,769.2900000000001C164,769.2900000000001,164,486.29000000000013,322,486.29000000000013" style="stroke: rgb(77, 175, 74);" stroke-width="9.38"></path><path d="M6,700.9499999999999C164,700.9499999999999,164,64.78999999999986,322,64.78999999999986" style="stroke: rgb(77, 175, 74);" stroke-width="1.34"></path><path d="M6,775.99C164,775.99,164,584.6299999999998,322,584.6299999999998" style="stroke: rgb(77, 175, 74);" stroke-width="1.34"></path><path d="M328,781.1600000000003C486,781.1600000000003,486,910.9400000000005,644,910.9400000000005" style="stroke: rgb(55, 126, 184);" stroke-width="8.040000000000001"></path><path d="M328,775.8000000000004C486,775.8000000000004,486,847.4400000000004,644,847.4400000000004" style="stroke: rgb(55, 126, 184);" stroke-width="2.68"></path><path d="M328,773.1200000000005C486,773.1200000000005,486,727.9600000000002,644,727.9600000000002" style="stroke: rgb(55, 126, 184);" stroke-width="2.68"></path><path d="M328,771.1100000000004C486,771.1100000000004,486,697.9099999999999,644,697.9099999999999" style="stroke: rgb(55, 126, 184);" stroke-width="1.34"></path><path d="M328,848.1100000000004C486,848.1100000000004,486,951.0900000000006,644,951.0900000000006" style="stroke: rgb(55, 126, 184);" stroke-width="46.900000000000006"></path><path d="M328,810.5900000000004C486,810.5900000000004,486,732.6500000000001,644,732.6500000000001" style="stroke: rgb(55, 126, 184);" stroke-width="6.7"></path><path d="M328,820.6400000000004C486,820.6400000000004,486,862.8000000000005,644,862.8000000000005" style="stroke: rgb(55, 126, 184);" stroke-width="2.68"></path><path d="M328,805.9000000000004C486,805.9000000000004,486,699.92,644,699.92" style="stroke: rgb(55, 126, 184);" stroke-width="2.68"></path><path d="M328,803.2200000000005C486,803.2200000000005,486,138.85999999999981,644,138.85999999999981" style="stroke: rgb(55, 126, 184);" stroke-width="2.68"></path><path d="M328,823.3200000000004C486,823.3200000000004,486,916.3000000000005,644,916.3000000000005" style="stroke: rgb(55, 126, 184);" stroke-width="2.68"></path><path d="M328,817.2900000000004C486,817.2900000000004,486,821.4100000000004,644,821.4100000000004" style="stroke: rgb(55, 126, 184);" stroke-width="4.0200000000000005"></path><path d="M328,799.2000000000004C486,799.2000000000004,486,106.0799999999997,644,106.0799999999997" style="stroke: rgb(55, 126, 184);" stroke-width="5.36"></path><path d="M328,814.6100000000004C486,814.6100000000004,486,797.3900000000002,644,797.3900000000002" style="stroke: rgb(55, 126, 184);" stroke-width="1.34"></path><path d="M328,795.8500000000004C486,795.8500000000004,486,36.029999999999504,644,36.029999999999504" style="stroke: rgb(55, 126, 184);" stroke-width="1.34"></path><path d="M328,912.3800000000006C486,912.3800000000006,486,884.8600000000005,644,884.8600000000005" style="stroke: rgb(55, 126, 184);" stroke-width="5.36"></path><path d="M328,900.9900000000006C486,900.9900000000006,486,752.0300000000001,644,752.0300000000001" style="stroke: rgb(55, 126, 184);" stroke-width="1.34"></path><path d="M328,898.3100000000006C486,898.3100000000006,486,738.0100000000001,644,738.0100000000001" style="stroke: rgb(55, 126, 184);" stroke-width="4.0200000000000005"></path><path d="M328,907.6900000000006C486,907.6900000000006,486,866.1500000000004,644,866.1500000000004" style="stroke: rgb(55, 126, 184);" stroke-width="4.0200000000000005"></path><path d="M328,888.9300000000006C486,888.9300000000006,486,113.44999999999969,644,113.44999999999969" style="stroke: rgb(55, 126, 184);" stroke-width="9.38"></path><path d="M328,894.2900000000005C486,894.2900000000005,486,140.8699999999998,644,140.8699999999998" style="stroke: rgb(55, 126, 184);" stroke-width="1.34"></path><path d="M328,904.3400000000007C486,904.3400000000007,486,850.1200000000003,644,850.1200000000003" style="stroke: rgb(55, 126, 184);" stroke-width="2.68"></path><path d="M328,895.6300000000006C486,895.6300000000006,486,645.8499999999998,644,645.8499999999998" style="stroke: rgb(55, 126, 184);" stroke-width="1.34"></path><path d="M328,902.3300000000006C486,902.3300000000006,486,763.3700000000002,644,763.3700000000002" style="stroke: rgb(55, 126, 184);" stroke-width="1.34"></path><path d="M328,883.5700000000005C486,883.5700000000005,486,70.04999999999971,644,70.04999999999971" style="stroke: rgb(55, 126, 184);" stroke-width="1.34"></path><path d="M328,882.2300000000005C486,882.2300000000005,486,2.0099999999996023,644,2.0099999999996023" style="stroke: rgb(55, 126, 184);" stroke-width="1.34"></path><path d="M328,927.1200000000006C486,927.1200000000006,486,986.6000000000005,644,986.6000000000005" style="stroke: rgb(55, 126, 184);" stroke-width="24.12"></path><path d="M328,20.669999999999604C486,20.669999999999604,486,58.70999999999957,644,58.70999999999957" style="stroke: rgb(228, 26, 28);" stroke-width="1.34"></path><path d="M328,38.70999999999975C486,38.70999999999975,486,682.55,644,682.55" style="stroke: rgb(228, 26, 28);" stroke-width="4.0200000000000005"></path><path d="M328,32.00999999999975C486,32.00999999999975,486,0.6699999999996021,644,0.6699999999996021" style="stroke: rgb(228, 26, 28);" stroke-width="1.34"></path><path d="M328,34.68999999999975C486,34.68999999999975,486,166.22999999999985,644,166.22999999999985" style="stroke: rgb(228, 26, 28);" stroke-width="4.0200000000000005"></path><path d="M328,79.47999999999986C486,79.47999999999986,486,185.65999999999988,644,185.65999999999988" style="stroke: rgb(228, 26, 28);" stroke-width="8.040000000000001"></path><path d="M328,104.22000000000006C486,104.22000000000006,486,200.39999999999986,644,200.39999999999986" style="stroke: rgb(152, 78, 163);" stroke-width="21.44"></path><path d="M328,132.9800000000001C486,132.9800000000001,486,219.15999999999985,644,219.15999999999985" style="stroke: rgb(152, 78, 163);" stroke-width="16.080000000000002"></path><path d="M328,141.6900000000001C486,141.6900000000001,486,668.5300000000001,644,668.5300000000001" style="stroke: rgb(152, 78, 163);" stroke-width="1.34"></path><path d="M328,162.4100000000002C486,162.4100000000002,486,237.2499999999999,644,237.2499999999999" style="stroke: rgb(152, 78, 163);" stroke-width="20.1"></path><path d="M328,210.6000000000002C486,210.6000000000002,486,275.4399999999999,644,275.4399999999999" style="stroke: rgb(152, 78, 163);" stroke-width="56.28"></path><path d="M328,252.7600000000002C486,252.7600000000002,486,307.59999999999985,644,307.59999999999985" style="stroke: rgb(77, 175, 74);" stroke-width="8.040000000000001"></path><path d="M328,334.40000000000015C486,334.40000000000015,486,369.2399999999999,644,369.2399999999999" style="stroke: rgb(77, 175, 74);" stroke-width="18.76"></path><path d="M328,367.1800000000001C486,367.1800000000001,486,390.6799999999999,644,390.6799999999999" style="stroke: rgb(77, 175, 74);" stroke-width="24.12"></path><path d="M328,379.91000000000014C486,379.91000000000014,486,669.8700000000001,644,669.8700000000001" style="stroke: rgb(77, 175, 74);" stroke-width="1.34"></path><path d="M328,354.45000000000016C486,354.45000000000016,486,92.72999999999978,644,92.72999999999978" style="stroke: rgb(77, 175, 74);" stroke-width="1.34"></path><path d="M328,401.3000000000001C486,401.3000000000001,486,413.4599999999999,644,413.4599999999999" style="stroke: rgb(77, 175, 74);" stroke-width="21.44"></path><path d="M328,426.71000000000015C486,426.71000000000015,486,428.8699999999999,644,428.8699999999999" style="stroke: rgb(255, 127, 0);" stroke-width="9.38"></path><path d="M328,466.8600000000001C486,466.8600000000001,486,457.6799999999999,644,457.6799999999999" style="stroke: rgb(255, 127, 0);" stroke-width="48.24"></path><path d="M328,442.07000000000016C486,442.07000000000016,486,153.5499999999998,644,153.5499999999998" style="stroke: rgb(255, 127, 0);" stroke-width="1.34"></path><path d="M328,502.31999999999994C486,502.31999999999994,486,483.1399999999999,644,483.1399999999999" style="stroke: rgb(255, 127, 0);" stroke-width="2.68"></path><path d="M328,505.66999999999996C486,505.66999999999996,486,834.0900000000004,644,834.0900000000004" style="stroke: rgb(255, 127, 0);" stroke-width="1.34"></path><path d="M328,504.33C486,504.33,486,808.7300000000004,644,808.7300000000004" style="stroke: rgb(255, 127, 0);" stroke-width="1.34"></path><path d="M328,529.7399999999999C486,529.7399999999999,486,497.8799999999999,644,497.8799999999999" style="stroke: rgb(255, 127, 0);" stroke-width="26.8"></path><path d="M328,568.5499999999997C486,568.5499999999997,486,526.6899999999999,644,526.6899999999999" style="stroke: rgb(255, 127, 0);" stroke-width="30.82"></path><path d="M328,584.6299999999998C486,584.6299999999998,486,835.4300000000004,644,835.4300000000004" style="stroke: rgb(255, 127, 0);" stroke-width="1.34"></path><path d="M328,602C486,602,486,548.8,644,548.8" style="stroke: rgb(255, 127, 0);" stroke-width="13.4"></path><path d="M328,640.81C486,640.81,486,577.6099999999999,644,577.6099999999999" style="stroke: rgb(255, 127, 0);" stroke-width="44.220000000000006"></path><path d="M328,678.28C486,678.28,486,605.0799999999999,644,605.0799999999999" style="stroke: rgb(255, 127, 0);" stroke-width="10.72"></path><path d="M328,706.99C486,706.99,486,613.79,644,613.79" style="stroke: rgb(255, 127, 0);" stroke-width="4.0200000000000005"></path><path d="M328,719.67C486,719.67,486,616.4699999999999,644,616.4699999999999" style="stroke: rgb(255, 127, 0);" stroke-width="1.34"></path><path d="M328,732.35C486,732.35,486,47.36999999999965,644,47.36999999999965" style="stroke: rgb(255, 127, 0);" stroke-width="1.34"></path><path d="M328,737.7100000000002C486,737.7100000000002,486,620.49,644,620.49" style="stroke: rgb(255, 127, 0);" stroke-width="6.7"></path><path d="M328,731.01C486,731.01,486,24.689999999999586,644,24.689999999999586" style="stroke: rgb(255, 127, 0);" stroke-width="1.34"></path><path d="M328,733.69C486,733.69,486,81.38999999999963,644,81.38999999999963" style="stroke: rgb(255, 127, 0);" stroke-width="1.34"></path><path d="M328,955.2100000000002C486,955.2100000000002,486,634.5099999999996,644,634.5099999999996" style="stroke: rgb(55, 126, 184);" stroke-width="1.34"></path><path d="M328,960.5700000000002C486,960.5700000000002,486,715.9499999999999,644,715.9499999999999" style="stroke: rgb(55, 126, 184);" stroke-width="1.34"></path><path d="M328,973.9700000000004C486,973.9700000000004,486,892.2300000000006,644,892.2300000000006" style="stroke: rgb(55, 126, 184);" stroke-width="9.38"></path><path d="M328,951.1900000000002C486,951.1900000000002,486,120.1499999999997,644,120.1499999999997" style="stroke: rgb(55, 126, 184);" stroke-width="4.0200000000000005"></path><path d="M328,961.9100000000002C486,961.9100000000002,486,740.69,644,740.69" style="stroke: rgb(55, 126, 184);" stroke-width="1.34"></path><path d="M328,967.2700000000003C486,967.2700000000003,486,870.1700000000004,644,870.1700000000004" style="stroke: rgb(55, 126, 184);" stroke-width="4.0200000000000005"></path><path d="M328,964.5900000000003C486,964.5900000000003,486,786.0500000000003,644,786.0500000000003" style="stroke: rgb(55, 126, 184);" stroke-width="1.34"></path><path d="M328,953.8700000000001C486,953.8700000000001,486,142.2099999999998,644,142.2099999999998" style="stroke: rgb(55, 126, 184);" stroke-width="1.34"></path><path d="M328,963.2500000000002C486,963.2500000000002,486,774.7100000000004,644,774.7100000000004" style="stroke: rgb(55, 126, 184);" stroke-width="1.34"></path><path d="M328,957.8900000000002C486,957.8900000000002,486,703.2699999999999,644,703.2699999999999" style="stroke: rgb(55, 126, 184);" stroke-width="4.0200000000000005"></path><path d="M328,979.3300000000003C486,979.3300000000003,486,999.3300000000005,644,999.3300000000005" style="stroke: rgb(55, 126, 184);" stroke-width="1.34"></path><path d="M328,290.90000000000015C486,290.90000000000015,486,335.7399999999999,644,335.7399999999999" style="stroke: rgb(77, 175, 74);" stroke-width="48.24"></path><path d="M328,751.7300000000002C486,751.7300000000002,486,13.349999999999666,644,13.349999999999666" style="stroke: rgb(55, 126, 184);" stroke-width="1.34"></path><path d="M328,759.1000000000004C486,759.1000000000004,486,695.9,644,695.9" style="stroke: rgb(55, 126, 184);" stroke-width="2.68"></path><path d="M328,755.0800000000003C486,755.0800000000003,486,134.8399999999998,644,134.8399999999998" style="stroke: rgb(55, 126, 184);" stroke-width="5.36"></path><path d="M328,57.41999999999986C486,57.41999999999986,486,174.93999999999986,644,174.93999999999986" style="stroke: rgb(228, 26, 28);" stroke-width="13.4"></path><path d="M328,64.78999999999986C486,64.78999999999986,486,657.19,644,657.19" style="stroke: rgb(228, 26, 28);" stroke-width="1.34"></path><path d="M328,694.3099999999998C486,694.3099999999998,486,611.1099999999999,644,611.1099999999999" style="stroke: rgb(255, 127, 0);" stroke-width="1.34"></path></g><g class="nodes" font-family="Arial, Helvetica" font-size="10"><g><rect x="644" y="-3.979039320256561e-13" height="2.6800000000000637" width="6" fill="#000"></rect><text x="638" y="1.339999999999634" dy="0.35em" text-anchor="end">Schmitz Benco</text></g><g><rect x="644" y="12.679999999999666" height="1.3399999999999181" width="6" fill="#000"></rect><text x="638" y="13.349999999999625" dy="0.35em" text-anchor="end">Schmitz Bliznakoff</text></g><g><rect x="644" y="24.019999999999584" height="1.3399999999999181" width="6" fill="#000"></rect><text x="638" y="24.689999999999543" dy="0.35em" text-anchor="end">Schmitz Cappelli</text></g><g><rect x="644" y="35.3599999999995" height="1.3400000000001455" width="6" fill="#000"></rect><text x="638" y="36.029999999999575" dy="0.35em" text-anchor="end">Schmitz Debenedetti</text></g><g><rect x="644" y="46.69999999999965" height="1.3399999999999181" width="6" fill="#000"></rect><text x="638" y="47.36999999999961" dy="0.35em" text-anchor="end">Schmitz Del Conte</text></g><g><rect x="644" y="58.039999999999566" height="1.3400000000001455" width="6" fill="#000"></rect><text x="638" y="58.70999999999964" dy="0.35em" text-anchor="end">Schmitz Elio</text></g><g><rect x="644" y="69.37999999999971" height="1.3399999999999181" width="6" fill="#000"></rect><text x="638" y="70.04999999999967" dy="0.35em" text-anchor="end">Schmitz Ferrero</text></g><g><rect x="644" y="80.71999999999963" height="1.3400000000001455" width="6" fill="#000"></rect><text x="638" y="81.3899999999997" dy="0.35em" text-anchor="end">Schmitz Frescura</text></g><g><rect x="644" y="92.05999999999977" height="1.3399999999999181" width="6" fill="#000"></rect><text x="638" y="92.72999999999973" dy="0.35em" text-anchor="end">Schmitz Frizzi Freiberger</text></g><g><rect x="644" y="103.3999999999997" height="18.760000000000105" width="6" fill="#000"></rect><text x="638" y="112.77999999999975" dy="0.35em" text-anchor="end">Schmitz Henri Michel</text></g><g><rect x="644" y="132.1599999999998" height="10.720000000000027" width="6" fill="#000"></rect><text x="638" y="137.5199999999998" dy="0.35em" text-anchor="end">Schmitz Joyce</text></g><g><rect x="644" y="152.87999999999982" height="1.3400000000000318" width="6" fill="#000"></rect><text x="638" y="153.54999999999984" dy="0.35em" text-anchor="end">Schmitz Letizia</text></g><g><rect x="644" y="164.21999999999986" height="459.6199999999998" width="6" fill="#000"></rect><text x="638" y="394.02999999999975" dy="0.35em" text-anchor="end">Schmitz Livia</text></g><g><rect x="644" y="633.8399999999997" height="1.3400000000001455" width="6" fill="#000"></rect><text x="638" y="634.5099999999998" dy="0.35em" text-anchor="end">Schmitz Menassé</text></g><g><rect x="644" y="645.1799999999998" height="1.3400000000002592" width="6" fill="#000"></rect><text x="638" y="645.8499999999999" dy="0.35em" text-anchor="end">Schmitz Morreale</text></g><g><rect x="644" y="656.5200000000001" height="1.3400000000000318" width="6" fill="#000"></rect><text x="638" y="657.19" dy="0.35em" text-anchor="end">Schmitz Nella</text></g><g><rect x="644" y="667.8600000000001" height="2.6799999999998363" width="6" fill="#000"></rect><text x="638" y="669.2" dy="0.35em" text-anchor="end">Schmitz Olga</text></g><g><rect x="644" y="680.54" height="4.019999999999982" width="6" fill="#000"></rect><text x="638" y="682.55" dy="0.35em" text-anchor="end">Schmitz Ottavio</text></g><g><rect x="644" y="694.56" height="10.720000000000027" width="6" fill="#000"></rect><text x="638" y="699.92" dy="0.35em" text-anchor="end">Schmitz Pasini</text></g><g><rect x="644" y="715.28" height="1.3400000000001455" width="6" fill="#000"></rect><text x="638" y="715.95" dy="0.35em" text-anchor="end">Schmitz Piceni</text></g><g><rect x="644" y="726.6200000000001" height="14.740000000000009" width="6" fill="#000"></rect><text x="638" y="733.9900000000001" dy="0.35em" text-anchor="end">Schmitz Prezzolini</text></g><g><rect x="644" y="751.3600000000001" height="1.3400000000001455" width="6" fill="#000"></rect><text x="638" y="752.0300000000002" dy="0.35em" text-anchor="end">Schmitz Rendi</text></g><g><rect x="644" y="762.7000000000003" height="1.3400000000001455" width="6" fill="#000"></rect><text x="638" y="763.3700000000003" dy="0.35em" text-anchor="end">Schmitz Rocca</text></g><g><rect x="644" y="774.0400000000004" height="1.3399999999999181" width="6" fill="#000"></rect><text x="638" y="774.7100000000004" dy="0.35em" text-anchor="end">Schmitz Rossi</text></g><g><rect x="644" y="785.3800000000003" height="1.3399999999999181" width="6" fill="#000"></rect><text x="638" y="786.0500000000003" dy="0.35em" text-anchor="end">Schmitz Rusconi Besso</text></g><g><rect x="644" y="796.7200000000003" height="1.3400000000001455" width="6" fill="#000"></rect><text x="638" y="797.3900000000003" dy="0.35em" text-anchor="end">Schmitz Somaré</text></g><g><rect x="644" y="808.0600000000004" height="1.3400000000000318" width="6" fill="#000"></rect><text x="638" y="808.7300000000005" dy="0.35em" text-anchor="end">Schmitz Tedeschi</text></g><g><rect x="644" y="819.4000000000004" height="4.019999999999982" width="6" fill="#000"></rect><text x="638" y="821.4100000000004" dy="0.35em" text-anchor="end">Schmitz Treves</text></g><g><rect x="644" y="833.4200000000004" height="2.67999999999995" width="6" fill="#000"></rect><text x="638" y="834.7600000000004" dy="0.35em" text-anchor="end">Schmitz Tribel</text></g><g><rect x="644" y="846.1000000000004" height="5.360000000000127" width="6" fill="#000"></rect><text x="638" y="848.7800000000004" dy="0.35em" text-anchor="end">Svevo Comnène</text></g><g><rect x="644" y="861.4600000000005" height="10.720000000000027" width="6" fill="#000"></rect><text x="638" y="866.8200000000005" dy="0.35em" text-anchor="end">Svevo Crémieux</text></g><g><rect x="644" y="882.1800000000005" height="14.740000000000009" width="6" fill="#000"></rect><text x="638" y="889.5500000000005" dy="0.35em" text-anchor="end">Svevo Jahier</text></g><g><rect x="644" y="906.9200000000005" height="10.720000000000027" width="6" fill="#000"></rect><text x="638" y="912.2800000000005" dy="0.35em" text-anchor="end">Svevo Larbaud</text></g><g><rect x="644" y="927.6400000000006" height="72.3599999999999" width="6" fill="#000"></rect><text x="638" y="963.8200000000005" dy="0.35em" text-anchor="end">Svevo Montale</text></g><g><rect x="0" y="144.99999999999994" height="301.5" width="6" fill="#000"></rect><text x="12" y="295.74999999999994" dy="0.35em" text-anchor="start">family</text></g><g><rect x="0" y="456.49999999999994" height="29.480000000000018" width="6" fill="#000"></rect><text x="12" y="471.23999999999995" dy="0.35em" text-anchor="start">health</text></g><g><rect x="0" y="495.97999999999996" height="194.29999999999995" width="6" fill="#000"></rect><text x="12" y="593.1299999999999" dy="0.35em" text-anchor="start">literature</text></g><g><rect x="0" y="700.28" height="87.10000000000014" width="6" fill="#000"></rect><text x="12" y="743.83" dy="0.35em" text-anchor="start">travel</text></g><g><rect x="0" y="797.3800000000001" height="57.620000000000005" width="6" fill="#000"></rect><text x="12" y="826.19" dy="0.35em" text-anchor="start">work</text></g><g><rect x="322" y="19.999999999999602" height="1.3400000000001455" width="6" fill="#000"></rect><text x="316" y="20.669999999999675" dy="0.35em" text-anchor="end">1885</text></g><g><rect x="322" y="31.339999999999748" height="9.38000000000011" width="6" fill="#000"></rect><text x="316" y="36.0299999999998" dy="0.35em" text-anchor="end">1895</text></g><g><rect x="322" y="50.71999999999986" height="14.740000000000009" width="6" fill="#000"></rect><text x="316" y="58.08999999999986" dy="0.35em" text-anchor="end">1896</text></g><g><rect x="322" y="75.45999999999987" height="8.040000000000191" width="6" fill="#000"></rect><text x="316" y="79.47999999999996" dy="0.35em" text-anchor="end">1897</text></g><g><rect x="322" y="93.50000000000006" height="21.440000000000055" width="6" fill="#000"></rect><text x="316" y="104.22000000000008" dy="0.35em" text-anchor="end">1898</text></g><g><rect x="322" y="124.94000000000011" height="17.420000000000073" width="6" fill="#000"></rect><text x="316" y="133.65000000000015" dy="0.35em" text-anchor="end">1899</text></g><g><rect x="322" y="152.36000000000018" height="20.100000000000023" width="6" fill="#000"></rect><text x="316" y="162.4100000000002" dy="0.35em" text-anchor="end">1900</text></g><g><rect x="322" y="182.4600000000002" height="56.27999999999997" width="6" fill="#000"></rect><text x="316" y="210.6000000000002" dy="0.35em" text-anchor="end">1901</text></g><g><rect x="322" y="248.74000000000018" height="8.039999999999964" width="6" fill="#000"></rect><text x="316" y="252.76000000000016" dy="0.35em" text-anchor="end">1902</text></g><g><rect x="322" y="266.78000000000014" height="48.24000000000001" width="6" fill="#000"></rect><text x="316" y="290.90000000000015" dy="0.35em" text-anchor="end">1903</text></g><g><rect x="322" y="325.02000000000015" height="18.75999999999999" width="6" fill="#000"></rect><text x="316" y="334.40000000000015" dy="0.35em" text-anchor="end">1904</text></g><g><rect x="322" y="353.78000000000014" height="26.799999999999955" width="6" fill="#000"></rect><text x="316" y="367.1800000000001" dy="0.35em" text-anchor="end">1905</text></g><g><rect x="322" y="390.5800000000001" height="21.440000000000055" width="6" fill="#000"></rect><text x="316" y="401.3000000000001" dy="0.35em" text-anchor="end">1906</text></g><g><rect x="322" y="422.02000000000015" height="9.379999999999995" width="6" fill="#000"></rect><text x="316" y="426.71000000000015" dy="0.35em" text-anchor="end">1907</text></g><g><rect x="322" y="441.40000000000015" height="49.579999999999814" width="6" fill="#000"></rect><text x="316" y="466.19000000000005" dy="0.35em" text-anchor="end">1908</text></g><g><rect x="322" y="500.97999999999996" height="5.3599999999999" width="6" fill="#000"></rect><text x="316" y="503.6599999999999" dy="0.35em" text-anchor="end">1909</text></g><g><rect x="322" y="516.3399999999999" height="26.79999999999984" width="6" fill="#000"></rect><text x="316" y="529.7399999999998" dy="0.35em" text-anchor="end">1910</text></g><g><rect x="322" y="553.1399999999998" height="32.16000000000025" width="6" fill="#000"></rect><text x="316" y="569.2199999999999" dy="0.35em" text-anchor="end">1911</text></g><g><rect x="322" y="595.3" height="13.399999999999977" width="6" fill="#000"></rect><text x="316" y="602" dy="0.35em" text-anchor="end">1912</text></g><g><rect x="322" y="618.6999999999999" height="44.22000000000003" width="6" fill="#000"></rect><text x="316" y="640.81" dy="0.35em" text-anchor="end">1913</text></g><g><rect x="322" y="672.92" height="10.719999999999942" width="6" fill="#000"></rect><text x="316" y="678.28" dy="0.35em" text-anchor="end">1914</text></g><g><rect x="322" y="693.6399999999999" height="1.3400000000001455" width="6" fill="#000"></rect><text x="316" y="694.31" dy="0.35em" text-anchor="end">1915</text></g><g><rect x="322" y="704.98" height="4.019999999999982" width="6" fill="#000"></rect><text x="316" y="706.99" dy="0.35em" text-anchor="end">1918</text></g><g><rect x="322" y="719" height="1.3400000000000318" width="6" fill="#000"></rect><text x="316" y="719.6700000000001" dy="0.35em" text-anchor="end">1919</text></g><g><rect x="322" y="730.34" height="10.720000000000255" width="6" fill="#000"></rect><text x="316" y="735.7000000000002" dy="0.35em" text-anchor="end">1922</text></g><g><rect x="322" y="751.0600000000003" height="9.38000000000011" width="6" fill="#000"></rect><text x="316" y="755.7500000000003" dy="0.35em" text-anchor="end">1924</text></g><g><rect x="322" y="770.4400000000004" height="14.740000000000009" width="6" fill="#000"></rect><text x="316" y="777.8100000000004" dy="0.35em" text-anchor="end">1925</text></g><g><rect x="322" y="795.1800000000004" height="76.38000000000011" width="6" fill="#000"></rect><text x="316" y="833.3700000000005" dy="0.35em" text-anchor="end">1926</text></g><g><rect x="322" y="881.5600000000005" height="57.61999999999966" width="6" fill="#000"></rect><text x="316" y="910.3700000000003" dy="0.35em" text-anchor="end">1927</text></g><g><rect x="322" y="949.1800000000002" height="30.820000000000164" width="6" fill="#000"></rect><text x="316" y="964.5900000000003" dy="0.35em" text-anchor="end">1928</text></g></g></g></svg>