<svg width="800" height="600" xmlns="http://www.w3.org/2000/svg" version="1.1"><g transform="translate(100,100)"><g class="arc"><path d="M-87.64105554122789,20.470598027888894A90,90,0,0,1,6.3403325984522e-14,-90L0,0Z" style="fill: rgb(191, 105, 105);"></path></g><g class="arc"><path d="M5.5109105961630896e-15,-90A90,90,0,1,1,-87.64105554122789,20.470598027888894L0,0Z" style="fill: rgb(153, 195, 144);"></path></g><text y="100" style="text-anchor: middle; font-size: 11px; font-family: Arial, Helvetica;">Schmitz Henri Michel</text></g><g transform="translate(300,100)"><g class="arc"><path d="M-65.97002527316768,-53.10107695400878A84.68629527980276,84.68629527980276,0,0,1,-9.07731599787821e-14,-84.68629527980276L0,0Z" style="fill: rgb(191, 105, 105);"></path></g><g class="arc"><path d="M5.185540022302903e-15,-84.68629527980276A84.68629527980276,84.68629527980276,0,1,1,-65.97002527316768,-53.10107695400878L0,0Z" style="fill: rgb(153, 195, 144);"></path></g><text y="94.68629527980276" style="text-anchor: middle; font-size: 11px; font-family: Arial, Helvetica;">Schmitz Joyce</text></g><g transform="translate(500,100)"><g class="arc"><path d="M-42.21516415391931,74.92092660321008A85.99572854291047,85.99572854291047,0,0,1,-1.5797159055062996e-14,-85.99572854291047L0,0Z" style="fill: rgb(191, 105, 105);"></path></g><g class="arc"><path d="M5.2657196850209994e-15,-85.99572854291047A85.99572854291047,85.99572854291047,0,1,1,-42.21516415391931,74.92092660321008L0,0Z" style="fill: rgb(153, 195, 144);"></path></g><text y="95.99572854291047" style="text-anchor: middle; font-size: 11px; font-family: Arial, Helvetica;">Schmitz Letizia</text></g><g transform="translate(700,100)"><g class="arc"><path d="M-31.30133210967756,74.4329906066853A80.74678620536692,80.74678620536692,0,0,1,-1.4832943990175736e-14,-80.74678620536692L0,0Z" style="fill: rgb(191, 105, 105);"></path></g><g class="arc"><path d="M4.9443146633919126e-15,-80.74678620536692A80.74678620536692,80.74678620536692,0,1,1,-31.30133210967756,74.4329906066853L0,0Z" style="fill: rgb(153, 195, 144);"></path></g><text y="90.74678620536692" style="text-anchor: middle; font-size: 11px; font-family: Arial, Helvetica;">Schmitz Livia</text></g><g transform="translate(100,300)"><g class="arc"><path d="M5.14316226707253e-15,-83.99421401588442A83.99421401588442,83.99421401588442,0,1,1,-34.913772177219776,76.39408681634586L0,0Z" style="fill: rgb(191, 105, 105);"></path></g><g class="arc"><path d="M-34.913772177219776,76.39408681634586A83.99421401588442,83.99421401588442,0,0,1,-9.003133506979993e-14,-83.99421401588442L0,0Z" style="fill: rgb(153, 195, 144);"></path></g><text y="93.99421401588442" style="text-anchor: middle; font-size: 11px; font-family: Arial, Helvetica;">Schmitz Ottavio</text></g><g transform="translate(300,300)"><g class="arc"><path d="M-84.08832477003963,15.520727219934926A85.50870912408449,85.50870912408449,0,0,1,-1.570769503920482e-14,-85.50870912408449L0,0Z" style="fill: rgb(191, 105, 105);"></path></g><g class="arc"><path d="M5.235898346401607e-15,-85.50870912408449A85.50870912408449,85.50870912408449,0,1,1,-84.08832477003963,15.520727219934926L0,0Z" style="fill: rgb(153, 195, 144);"></path></g><text y="95.50870912408449" style="text-anchor: middle; font-size: 11px; font-family: Arial, Helvetica;">Schmitz Pasini</text></g><g transform="translate(500,300)"><g class="arc"><path d="M-69.48121454148294,52.2717338031125A86.94810710385266,86.94810710385266,0,0,1,-1.597210815849816e-14,-86.94810710385266L0,0Z" style="fill: rgb(191, 105, 105);"></path></g><g class="arc"><path d="M5.32403605283272e-15,-86.94810710385266A86.94810710385266,86.94810710385266,0,1,1,-69.48121454148294,52.2717338031125L0,0Z" style="fill: rgb(153, 195, 144);"></path></g><text y="96.94810710385266" style="text-anchor: middle; font-size: 11px; font-family: Arial, Helvetica;">Schmitz Prezzolini</text></g><g transform="translate(700,300)"><g class="arc"><path d="M-78.28745082272994,27.444552462717223A82.95859458910931,82.95859458910931,0,0,1,-8.892128004149581e-14,-82.95859458910931L0,0Z" style="fill: rgb(191, 105, 105);"></path></g><g class="arc"><path d="M5.0797488662657825e-15,-82.95859458910931A82.95859458910931,82.95859458910931,0,1,1,-78.28745082272994,27.444552462717223L0,0Z" style="fill: rgb(153, 195, 144);"></path></g><text y="92.95859458910931" style="text-anchor: middle; font-size: 11px; font-family: Arial, Helvetica;">Svevo Comnène</text></g><g transform="translate(100,500)"><g class="arc"><path d="M-60.16092836685597,58.13072969760895A83.65715173933697,83.65715173933697,0,0,1,5.893490736295338e-14,-83.65715173933697L0,0Z" style="fill: rgb(191, 105, 105);"></path></g><g class="arc"><path d="M5.122523155168172e-15,-83.65715173933697A83.65715173933697,83.65715173933697,0,1,1,-60.16092836685597,58.13072969760895L0,0Z" style="fill: rgb(153, 195, 144);"></path></g><text y="93.65715173933697" style="text-anchor: middle; font-size: 11px; font-family: Arial, Helvetica;">Svevo Crémieux</text></g><g transform="translate(300,500)"><g class="arc"><path d="M-74.64020895982915,41.870408087419314A85.58207678581998,85.58207678581998,0,0,1,-1.5721172460020616e-14,-85.58207678581998L0,0Z" style="fill: rgb(191, 105, 105);"></path></g><g class="arc"><path d="M5.2403908200068716e-15,-85.58207678581998A85.58207678581998,85.58207678581998,0,1,1,-74.64020895982915,41.870408087419314L0,0Z" style="fill: rgb(153, 195, 144);"></path></g><text y="95.58207678581998" style="text-anchor: middle; font-size: 11px; font-family: Arial, Helvetica;">Svevo Jahier</text></g><g transform="translate(500,500)"><g class="arc"><path d="M-55.8318452313362,60.98548967623872A82.68267589396523,82.68267589396523,0,0,1,5.824840725530729e-14,-82.68267589396523L0,0Z" style="fill: rgb(191, 105, 105);"></path></g><g class="arc"><path d="M5.062853718924127e-15,-82.68267589396523A82.68267589396523,82.68267589396523,0,1,1,-55.8318452313362,60.98548967623872L0,0Z" style="fill: rgb(153, 195, 144);"></path></g><text y="92.68267589396523" style="text-anchor: middle; font-size: 11px; font-family: Arial, Helvetica;">Svevo Larbaud</text></g><g transform="translate(700,500)"><g class="arc"><path d="M-79.61315144582329,36.09407105134094A87.41301875690395,87.41301875690395,0,0,1,-1.6057511043667496e-14,-87.41301875690395L0,0Z" style="fill: rgb(191, 105, 105);"></path></g><g class="arc"><path d="M5.352503681222499e-15,-87.41301875690395A87.41301875690395,87.41301875690395,0,1,1,-79.61315144582329,36.09407105134094L0,0Z" style="fill: rgb(153, 195, 144);"></path></g><text y="97.41301875690395" style="text-anchor: middle; font-size: 11px; font-family: Arial, Helvetica;">Svevo Montale</text></g></svg>