<svg width="994" height="1020" xmlns="http://www.w3.org/2000/svg" version="1.1"><g transform="translate(0, 10)"><g class="links" fill="none" stroke-opacity="0.4"><path d="M6,518.0899999999999C250,518.0899999999999,250,777.8100000000004,494,777.8100000000004" style="stroke: rgb(55, 126, 184);" stroke-width="14.74"></path><path d="M6,563.65C250,563.65,250,833.3700000000005,494,833.3700000000005" style="stroke: rgb(55, 126, 184);" stroke-width="76.38000000000001"></path><path d="M6,630.6499999999999C250,630.6499999999999,250,910.3700000000006,494,910.3700000000006" style="stroke: rgb(55, 126, 184);" stroke-width="57.620000000000005"></path><path d="M6,500.6699999999999C250,500.6699999999999,250,736.37,494,736.37" style="stroke: rgb(55, 126, 184);" stroke-width="4.0200000000000005"></path><path d="M6,674.8699999999999C250,674.8699999999999,250,964.5900000000001,494,964.5900000000001" style="stroke: rgb(55, 126, 184);" stroke-width="30.82"></path><path d="M6,496.65C250,496.65,250,81.48999999999988,494,81.48999999999988" style="stroke: rgb(55, 126, 184);" stroke-width="1.34"></path><path d="M6,506.6999999999999C250,506.6999999999999,250,755.0800000000003,494,755.0800000000003" style="stroke: rgb(55, 126, 184);" stroke-width="8.040000000000001"></path><path d="M6,497.98999999999995C250,497.98999999999995,250,583.2899999999997,494,583.2899999999997" style="stroke: rgb(55, 126, 184);" stroke-width="1.34"></path><path d="M6,457.16999999999996C250,457.16999999999996,250,20.669999999999604,494,20.669999999999604" style="stroke: rgb(228, 26, 28);" stroke-width="1.34"></path><path d="M6,460.5199999999999C250,460.5199999999999,250,36.69999999999975,494,36.69999999999975" style="stroke: rgb(228, 26, 28);" stroke-width="5.36"></path><path d="M6,472.5799999999999C250,472.5799999999999,250,79.47999999999988,494,79.47999999999988" style="stroke: rgb(228, 26, 28);" stroke-width="2.68"></path><path d="M6,474.59C250,474.59,250,110.25000000000006,494,110.25000000000006" style="stroke: rgb(228, 26, 28);" stroke-width="1.34"></path><path d="M6,475.92999999999995C250,475.92999999999995,250,196.5300000000002,494,196.5300000000002" style="stroke: rgb(228, 26, 28);" stroke-width="1.34"></path><path d="M6,467.2199999999999C250,467.2199999999999,250,60.09999999999986,494,60.09999999999986" style="stroke: rgb(228, 26, 28);" stroke-width="8.040000000000001"></path><path d="M6,477.9399999999999C250,477.9399999999999,250,334.40000000000015,494,334.40000000000015" style="stroke: rgb(228, 26, 28);" stroke-width="2.68"></path><path d="M6,479.94999999999993C250,479.94999999999993,250,428.0500000000002,494,428.0500000000002" style="stroke: rgb(228, 26, 28);" stroke-width="1.34"></path><path d="M6,482.6299999999999C250,482.6299999999999,250,505.66999999999996,494,505.66999999999996" style="stroke: rgb(228, 26, 28);" stroke-width="1.34"></path><path d="M6,481.2899999999999C250,481.2899999999999,250,480.9300000000002,494,480.9300000000002" style="stroke: rgb(228, 26, 28);" stroke-width="1.34"></path><path d="M6,484.6399999999998C250,484.6399999999998,250,654.88,494,654.88" style="stroke: rgb(228, 26, 28);" stroke-width="2.68"></path><path d="M6,805.4200000000001C250,805.4200000000001,250,138.34000000000012,494,138.34000000000012" style="stroke: rgb(152, 78, 163);" stroke-width="8.040000000000001"></path><path d="M6,800.0600000000002C250,800.0600000000002,250,113.60000000000007,494,113.60000000000007" style="stroke: rgb(152, 78, 163);" stroke-width="2.68"></path><path d="M6,854.3299999999999C250,854.3299999999999,250,694.3099999999998,494,694.3099999999998" style="stroke: rgb(152, 78, 163);" stroke-width="1.34"></path><path d="M6,850.98C250,850.98,250,379.2400000000001,494,379.2400000000001" style="stroke: rgb(152, 78, 163);" stroke-width="2.68"></path><path d="M6,830.21C250,830.21,250,220.65000000000023,494,220.65000000000023" style="stroke: rgb(152, 78, 163);" stroke-width="36.18"></path><path d="M6,848.9699999999999C250,848.9699999999999,250,314.3500000000002,494,314.3500000000002" style="stroke: rgb(152, 78, 163);" stroke-width="1.34"></path><path d="M6,798.0500000000001C250,798.0500000000001,250,40.04999999999975,494,40.04999999999975" style="stroke: rgb(152, 78, 163);" stroke-width="1.34"></path><path d="M6,810.7800000000001C250,810.7800000000001,250,171.1200000000002,494,171.1200000000002" style="stroke: rgb(152, 78, 163);" stroke-width="2.68"></path><path d="M6,852.9899999999999C250,852.9899999999999,250,542.4699999999999,494,542.4699999999999" style="stroke: rgb(152, 78, 163);" stroke-width="1.34"></path><path d="M6,188.54999999999998C250,188.54999999999998,250,159.7300000000002,494,159.7300000000002" style="stroke: rgb(255, 127, 0);" stroke-width="14.74"></path><path d="M6,279C250,279,250,424.70000000000016,494,424.70000000000016" style="stroke: rgb(255, 127, 0);" stroke-width="5.36"></path><path d="M6,301.11C250,301.11,250,460.83000000000015,494,460.83000000000015" style="stroke: rgb(255, 127, 0);" stroke-width="38.86"></path><path d="M6,322.55C250,322.55,250,502.98999999999995,494,502.98999999999995" style="stroke: rgb(255, 127, 0);" stroke-width="4.0200000000000005"></path><path d="M6,336.62C250,336.62,250,528.3999999999999,494,528.3999999999999" style="stroke: rgb(255, 127, 0);" stroke-width="24.12"></path><path d="M6,363.42C250,363.42,250,567.8799999999998,494,567.8799999999998" style="stroke: rgb(255, 127, 0);" stroke-width="29.48"></path><path d="M6,384.86C250,384.86,250,602,494,602" style="stroke: rgb(255, 127, 0);" stroke-width="13.4"></path><path d="M6,408.98C250,408.98,250,636.1199999999999,494,636.1199999999999" style="stroke: rgb(255, 127, 0);" stroke-width="34.84"></path><path d="M6,431.76C250,431.76,250,678.28,494,678.28" style="stroke: rgb(255, 127, 0);" stroke-width="10.72"></path><path d="M6,439.13C250,439.13,250,706.99,494,706.99" style="stroke: rgb(255, 127, 0);" stroke-width="4.0200000000000005"></path><path d="M6,441.81C250,441.81,250,719.67,494,719.67" style="stroke: rgb(255, 127, 0);" stroke-width="1.34"></path><path d="M6,154.37999999999997C250,154.37999999999997,250,76.79999999999987,494,76.79999999999987" style="stroke: rgb(255, 127, 0);" stroke-width="2.68"></path><path d="M6,232.1C250,232.1,250,282.8600000000001,494,282.8600000000001" style="stroke: rgb(255, 127, 0);" stroke-width="32.160000000000004"></path><path d="M6,146.33999999999995C250,146.33999999999995,250,32.67999999999975,494,32.67999999999975" style="stroke: rgb(255, 127, 0);" stroke-width="2.68"></path><path d="M6,260.23999999999995C250,260.23999999999995,250,357.8000000000001,494,357.8000000000001" style="stroke: rgb(255, 127, 0);" stroke-width="8.040000000000001"></path><path d="M6,212.67C250,212.67,250,252.09000000000017,494,252.09000000000017" style="stroke: rgb(255, 127, 0);" stroke-width="6.7"></path><path d="M6,252.2C250,252.2,250,329.04000000000013,494,329.04000000000013" style="stroke: rgb(255, 127, 0);" stroke-width="8.040000000000001"></path><path d="M6,444.48999999999995C250,444.48999999999995,250,732.35,494,732.35" style="stroke: rgb(255, 127, 0);" stroke-width="4.0200000000000005"></path><path d="M6,270.28999999999996C250,270.28999999999996,250,396.61000000000007,494,396.61000000000007" style="stroke: rgb(255, 127, 0);" stroke-width="12.06"></path><path d="M6,202.61999999999998C250,202.61999999999998,250,189.1600000000002,494,189.1600000000002" style="stroke: rgb(255, 127, 0);" stroke-width="13.4"></path><path d="M6,176.48999999999998C250,176.48999999999998,250,129.6300000000001,494,129.6300000000001" style="stroke: rgb(255, 127, 0);" stroke-width="9.38"></path><path d="M6,163.75999999999996C250,163.75999999999996,250,101.54000000000006,494,101.54000000000006" style="stroke: rgb(255, 127, 0);" stroke-width="16.080000000000002"></path><path d="M6,150.35999999999996C250,150.35999999999996,250,53.39999999999986,494,53.39999999999986" style="stroke: rgb(255, 127, 0);" stroke-width="5.36"></path><path d="M6,713.01C250,713.01,250,256.1100000000002,494,256.1100000000002" style="stroke: rgb(77, 175, 74);" stroke-width="1.34"></path><path d="M6,732.44C250,732.44,250,339.76000000000016,494,339.76000000000016" style="stroke: rgb(77, 175, 74);" stroke-width="8.040000000000001"></path><path d="M6,744.5C250,744.5,250,369.8600000000002,494,369.8600000000002" style="stroke: rgb(77, 175, 74);" stroke-width="16.080000000000002"></path><path d="M6,757.2300000000001C250,757.2300000000001,250,407.3300000000001,494,407.3300000000001" style="stroke: rgb(77, 175, 74);" stroke-width="9.38"></path><path d="M6,784.7000000000002C250,784.7000000000002,250,739.72,494,739.72" style="stroke: rgb(77, 175, 74);" stroke-width="2.68"></path><path d="M6,786.71C250,786.71,250,759.7700000000002,494,759.7700000000002" style="stroke: rgb(77, 175, 74);" stroke-width="1.34"></path><path d="M6,763.2600000000001C250,763.2600000000001,250,430.0600000000001,494,430.0600000000001" style="stroke: rgb(77, 175, 74);" stroke-width="2.68"></path><path d="M6,780.0100000000001C250,780.0100000000001,250,659.5699999999999,494,659.5699999999999" style="stroke: rgb(77, 175, 74);" stroke-width="6.7"></path><path d="M6,702.29C250,702.29,250,82.82999999999988,494,82.82999999999988" style="stroke: rgb(77, 175, 74);" stroke-width="1.34"></path><path d="M6,705.6400000000001C250,705.6400000000001,250,168.4400000000002,494,168.4400000000002" style="stroke: rgb(77, 175, 74);" stroke-width="2.68"></path><path d="M6,709.66C250,709.66,250,199.88000000000022,494,199.88000000000022" style="stroke: rgb(77, 175, 74);" stroke-width="5.36"></path><path d="M6,721.0500000000001C250,721.0500000000001,250,306.3100000000002,494,306.3100000000002" style="stroke: rgb(77, 175, 74);" stroke-width="14.74"></path><path d="M6,703.63C250,703.63,250,111.59000000000006,494,111.59000000000006" style="stroke: rgb(77, 175, 74);" stroke-width="1.34"></path><path d="M6,774.65C250,774.65,250,541.1299999999999,494,541.1299999999999" style="stroke: rgb(77, 175, 74);" stroke-width="1.34"></path><path d="M6,769.2900000000001C250,769.2900000000001,250,486.29000000000013,494,486.29000000000013" style="stroke: rgb(77, 175, 74);" stroke-width="9.38"></path><path d="M6,700.9499999999999C250,700.9499999999999,250,64.78999999999986,494,64.78999999999986" style="stroke: rgb(77, 175, 74);" stroke-width="1.34"></path><path d="M6,775.99C250,775.99,250,584.6299999999998,494,584.6299999999998" style="stroke: rgb(77, 175, 74);" stroke-width="1.34"></path><path d="M500,781.1600000000003C744,781.1600000000003,744,910.9400000000005,988,910.9400000000005" style="stroke: rgb(55, 126, 184);" stroke-width="8.040000000000001"></path><path d="M500,775.8000000000004C744,775.8000000000004,744,847.4400000000004,988,847.4400000000004" style="stroke: rgb(55, 126, 184);" stroke-width="2.68"></path><path d="M500,773.1200000000005C744,773.1200000000005,744,727.9600000000002,988,727.9600000000002" style="stroke: rgb(55, 126, 184);" stroke-width="2.68"></path><path d="M500,771.1100000000004C744,771.1100000000004,744,697.9099999999999,988,697.9099999999999" style="stroke: rgb(55, 126, 184);" stroke-width="1.34"></path><path d="M500,848.1100000000004C744,848.1100000000004,744,951.0900000000006,988,951.0900000000006" style="stroke: rgb(55, 126, 184);" stroke-width="46.900000000000006"></path><path d="M500,810.5900000000004C744,810.5900000000004,744,732.6500000000001,988,732.6500000000001" style="stroke: rgb(55, 126, 184);" stroke-width="6.7"></path><path d="M500,820.6400000000004C744,820.6400000000004,744,862.8000000000005,988,862.8000000000005" style="stroke: rgb(55, 126, 184);" stroke-width="2.68"></path><path d="M500,805.9000000000004C744,805.9000000000004,744,699.92,988,699.92" style="stroke: rgb(55, 126, 184);" stroke-width="2.68"></path><path d="M500,803.2200000000005C744,803.2200000000005,744,138.85999999999981,988,138.85999999999981" style="stroke: rgb(55, 126, 184);" stroke-width="2.68"></path><path d="M500,823.3200000000004C744,823.3200000000004,744,916.3000000000005,988,916.3000000000005" style="stroke: rgb(55, 126, 184);" stroke-width="2.68"></path><path d="M500,817.2900000000004C744,817.2900000000004,744,821.4100000000004,988,821.4100000000004" style="stroke: rgb(55, 126, 184);" stroke-width="4.0200000000000005"></path><path d="M500,799.2000000000004C744,799.2000000000004,744,106.0799999999997,988,106.0799999999997" style="stroke: rgb(55, 126, 184);" stroke-width="5.36"></path><path d="M500,814.6100000000004C744,814.6100000000004,744,797.3900000000002,988,797.3900000000002" style="stroke: rgb(55, 126, 184);" stroke-width="1.34"></path><path d="M500,795.8500000000004C744,795.8500000000004,744,36.029999999999504,988,36.029999999999504" style="stroke: rgb(55, 126, 184);" stroke-width="1.34"></path><path d="M500,912.3800000000006C744,912.3800000000006,744,884.8600000000005,988,884.8600000000005" style="stroke: rgb(55, 126, 184);" stroke-width="5.36"></path><path d="M500,900.9900000000006C744,900.9900000000006,744,752.0300000000001,988,752.0300000000001" style="stroke: rgb(55, 126, 184);" stroke-width="1.34"></path><path d="M500,898.3100000000006C744,898.3100000000006,744,738.0100000000001,988,738.0100000000001" style="stroke: rgb(55, 126, 184);" stroke-width="4.0200000000000005"></path><path d="M500,907.6900000000006C744,907.6900000000006,744,866.1500000000004,988,866.1500000000004" style="stroke: rgb(55, 126, 184);" stroke-width="4.0200000000000005"></path><path d="M500,888.9300000000006C744,888.9300000000006,744,113.44999999999969,988,113.44999999999969" style="stroke: rgb(55, 126, 184);" stroke-width="9.38"></path><path d="M500,894.2900000000005C744,894.2900000000005,744,140.8699999999998,988,140.8699999999998" style="stroke: rgb(55, 126, 184);" stroke-width="1.34"></path><path d="M500,904.3400000000007C744,904.3400000000007,744,850.1200000000003,988,850.1200000000003" style="stroke: rgb(55, 126, 184);" stroke-width="2.68"></path><path d="M500,895.6300000000006C744,895.6300000000006,744,645.8499999999998,988,645.8499999999998" style="stroke: rgb(55, 126, 184);" stroke-width="1.34"></path><path d="M500,902.3300000000006C744,902.3300000000006,744,763.3700000000002,988,763.3700000000002" style="stroke: rgb(55, 126, 184);" stroke-width="1.34"></path><path d="M500,883.5700000000005C744,883.5700000000005,744,70.04999999999971,988,70.04999999999971" style="stroke: rgb(55, 126, 184);" stroke-width="1.34"></path><path d="M500,882.2300000000005C744,882.2300000000005,744,2.0099999999996023,988,2.0099999999996023" style="stroke: rgb(55, 126, 184);" stroke-width="1.34"></path><path d="M500,927.1200000000006C744,927.1200000000006,744,986.6000000000005,988,986.6000000000005" style="stroke: rgb(55, 126, 184);" stroke-width="24.12"></path><path d="M500,20.669999999999604C744,20.669999999999604,744,58.70999999999957,988,58.70999999999957" style="stroke: rgb(228, 26, 28);" stroke-width="1.34"></path><path d="M500,38.70999999999975C744,38.70999999999975,744,682.55,988,682.55" style="stroke: rgb(228, 26, 28);" stroke-width="4.0200000000000005"></path><path d="M500,32.00999999999975C744,32.00999999999975,744,0.6699999999996021,988,0.6699999999996021" style="stroke: rgb(228, 26, 28);" stroke-width="1.34"></path><path d="M500,34.68999999999975C744,34.68999999999975,744,166.22999999999985,988,166.22999999999985" style="stroke: rgb(228, 26, 28);" stroke-width="4.0200000000000005"></path><path d="M500,79.47999999999986C744,79.47999999999986,744,185.65999999999988,988,185.65999999999988" style="stroke: rgb(228, 26, 28);" stroke-width="8.040000000000001"></path><path d="M500,104.22000000000006C744,104.22000000000006,744,200.39999999999986,988,200.39999999999986" style="stroke: rgb(152, 78, 163);" stroke-width="21.44"></path><path d="M500,132.9800000000001C744,132.9800000000001,744,219.15999999999985,988,219.15999999999985" style="stroke: rgb(152, 78, 163);" stroke-width="16.080000000000002"></path><path d="M500,141.6900000000001C744,141.6900000000001,744,668.5300000000001,988,668.5300000000001" style="stroke: rgb(152, 78, 163);" stroke-width="1.34"></path><path d="M500,162.4100000000002C744,162.4100000000002,744,237.2499999999999,988,237.2499999999999" style="stroke: rgb(152, 78, 163);" stroke-width="20.1"></path><path d="M500,210.6000000000002C744,210.6000000000002,744,275.4399999999999,988,275.4399999999999" style="stroke: rgb(152, 78, 163);" stroke-width="56.28"></path><path d="M500,252.7600000000002C744,252.7600000000002,744,307.59999999999985,988,307.59999999999985" style="stroke: rgb(77, 175, 74);" stroke-width="8.040000000000001"></path><path d="M500,334.40000000000015C744,334.40000000000015,744,369.2399999999999,988,369.2399999999999" style="stroke: rgb(77, 175, 74);" stroke-width="18.76"></path><path d="M500,367.1800000000001C744,367.1800000000001,744,390.6799999999999,988,390.6799999999999" style="stroke: rgb(77, 175, 74);" stroke-width="24.12"></path><path d="M500,379.91000000000014C744,379.91000000000014,744,669.8700000000001,988,669.8700000000001" style="stroke: rgb(77, 175, 74);" stroke-width="1.34"></path><path d="M500,354.45000000000016C744,354.45000000000016,744,92.72999999999978,988,92.72999999999978" style="stroke: rgb(77, 175, 74);" stroke-width="1.34"></path><path d="M500,401.3000000000001C744,401.3000000000001,744,413.4599999999999,988,413.4599999999999" style="stroke: rgb(77, 175, 74);" stroke-width="21.44"></path><path d="M500,426.71000000000015C744,426.71000000000015,744,428.8699999999999,988,428.8699999999999" style="stroke: rgb(255, 127, 0);" stroke-width="9.38"></path><path d="M500,466.8600000000001C744,466.8600000000001,744,457.6799999999999,988,457.6799999999999" style="stroke: rgb(255, 127, 0);" stroke-width="48.24"></path><path d="M500,442.07000000000016C744,442.07000000000016,744,153.5499999999998,988,153.5499999999998" style="stroke: rgb(255, 127, 0);" stroke-width="1.34"></path><path d="M500,502.31999999999994C744,502.31999999999994,744,483.1399999999999,988,483.1399999999999" style="stroke: rgb(255, 127, 0);" stroke-width="2.68"></path><path d="M500,505.66999999999996C744,505.66999999999996,744,834.0900000000004,988,834.0900000000004" style="stroke: rgb(255, 127, 0);" stroke-width="1.34"></path><path d="M500,504.33C744,504.33,744,808.7300000000004,988,808.7300000000004" style="stroke: rgb(255, 127, 0);" stroke-width="1.34"></path><path d="M500,529.7399999999999C744,529.7399999999999,744,497.8799999999999,988,497.8799999999999" style="stroke: rgb(255, 127, 0);" stroke-width="26.8"></path><path d="M500,568.5499999999997C744,568.5499999999997,744,526.6899999999999,988,526.6899999999999" style="stroke: rgb(255, 127, 0);" stroke-width="30.82"></path><path d="M500,584.6299999999998C744,584.6299999999998,744,835.4300000000004,988,835.4300000000004" style="stroke: rgb(255, 127, 0);" stroke-width="1.34"></path><path d="M500,602C744,602,744,548.8,988,548.8" style="stroke: rgb(255, 127, 0);" stroke-width="13.4"></path><path d="M500,640.81C744,640.81,744,577.6099999999999,988,577.6099999999999" style="stroke: rgb(255, 127, 0);" stroke-width="44.220000000000006"></path><path d="M500,678.28C744,678.28,744,605.0799999999999,988,605.0799999999999" style="stroke: rgb(255, 127, 0);" stroke-width="10.72"></path><path d="M500,706.99C744,706.99,744,613.79,988,613.79" style="stroke: rgb(255, 127, 0);" stroke-width="4.0200000000000005"></path><path d="M500,719.67C744,719.67,744,616.4699999999999,988,616.4699999999999" style="stroke: rgb(255, 127, 0);" stroke-width="1.34"></path><path d="M500,732.35C744,732.35,744,47.36999999999965,988,47.36999999999965" style="stroke: rgb(255, 127, 0);" stroke-width="1.34"></path><path d="M500,737.7100000000002C744,737.7100000000002,744,620.49,988,620.49" style="stroke: rgb(255, 127, 0);" stroke-width="6.7"></path><path d="M500,731.01C744,731.01,744,24.689999999999586,988,24.689999999999586" style="stroke: rgb(255, 127, 0);" stroke-width="1.34"></path><path d="M500,733.69C744,733.69,744,81.38999999999963,988,81.38999999999963" style="stroke: rgb(255, 127, 0);" stroke-width="1.34"></path><path d="M500,955.2100000000002C744,955.2100000000002,744,634.5099999999996,988,634.5099999999996" style="stroke: rgb(55, 126, 184);" stroke-width="1.34"></path><path d="M500,960.5700000000002C744,960.5700000000002,744,715.9499999999999,988,715.9499999999999" style="stroke: rgb(55, 126, 184);" stroke-width="1.34"></path><path d="M500,973.9700000000004C744,973.9700000000004,744,892.2300000000006,988,892.2300000000006" style="stroke: rgb(55, 126, 184);" stroke-width="9.38"></path><path d="M500,951.1900000000002C744,951.1900000000002,744,120.1499999999997,988,120.1499999999997" style="stroke: rgb(55, 126, 184);" stroke-width="4.0200000000000005"></path><path d="M500,961.9100000000002C744,961.9100000000002,744,740.69,988,740.69" style="stroke: rgb(55, 126, 184);" stroke-width="1.34"></path><path d="M500,967.2700000000003C744,967.2700000000003,744,870.1700000000004,988,870.1700000000004" style="stroke: rgb(55, 126, 184);" stroke-width="4.0200000000000005"></path><path d="M500,964.5900000000003C744,964.5900000000003,744,786.0500000000003,988,786.0500000000003" style="stroke: rgb(55, 126, 184);" stroke-width="1.34"></path><path d="M500,953.8700000000001C744,953.8700000000001,744,142.2099999999998,988,142.2099999999998" style="stroke: rgb(55, 126, 184);" stroke-width="1.34"></path><path d="M500,963.2500000000002C744,963.2500000000002,744,774.7100000000004,988,774.7100000000004" style="stroke: rgb(55, 126, 184);" stroke-width="1.34"></path><path d="M500,957.8900000000002C744,957.8900000000002,744,703.2699999999999,988,703.2699999999999" style="stroke: rgb(55, 126, 184);" stroke-width="4.0200000000000005"></path><path d="M500,979.3300000000003C744,979.3300000000003,744,999.3300000000005,988,999.3300000000005" style="stroke: rgb(55, 126, 184);" stroke-width="1.34"></path><path d="M500,290.90000000000015C744,290.90000000000015,744,335.7399999999999,988,335.7399999999999" style="stroke: rgb(77, 175, 74);" stroke-width="48.24"></path><path d="M500,751.7300000000002C744,751.7300000000002,744,13.349999999999666,988,13.349999999999666" style="stroke: rgb(55, 126, 184);" stroke-width="1.34"></path><path d="M500,759.1000000000004C744,759.1000000000004,744,695.9,988,695.9" style="stroke: rgb(55, 126, 184);" stroke-width="2.68"></path><path d="M500,755.0800000000003C744,755.0800000000003,744,134.8399999999998,988,134.8399999999998" style="stroke: rgb(55, 126, 184);" stroke-width="5.36"></path><path d="M500,57.41999999999986C744,57.41999999999986,744,174.93999999999986,988,174.93999999999986" style="stroke: rgb(228, 26, 28);" stroke-width="13.4"></path><path d="M500,64.78999999999986C744,64.78999999999986,744,657.19,988,657.19" style="stroke: rgb(228, 26, 28);" stroke-width="1.34"></path><path d="M500,694.3099999999998C744,694.3099999999998,744,611.1099999999999,988,611.1099999999999" style="stroke: rgb(255, 127, 0);" stroke-width="1.34"></path></g><g class="nodes" font-family="Arial, Helvetica" font-size="10"><g><rect x="988" y="-3.979039320256561e-13" height="2.6800000000000637" width="6" fill="#000"></rect><text x="982" y="1.339999999999634" dy="0.35em" text-anchor="end">Schmitz Benco</text></g><g><rect x="988" y="12.679999999999666" height="1.3399999999999181" width="6" fill="#000"></rect><text x="982" y="13.349999999999625" dy="0.35em" text-anchor="end">Schmitz Bliznakoff</text></g><g><rect x="988" y="24.019999999999584" height="1.3399999999999181" width="6" fill="#000"></rect><text x="982" y="24.689999999999543" dy="0.35em" text-anchor="end">Schmitz Cappelli</text></g><g><rect x="988" y="35.3599999999995" height="1.3400000000001455" width="6" fill="#000"></rect><text x="982" y="36.029999999999575" dy="0.35em" text-anchor="end">Schmitz Debenedetti</text></g><g><rect x="988" y="46.69999999999965" height="1.3399999999999181" width="6" fill="#000"></rect><text x="982" y="47.36999999999961" dy="0.35em" text-anchor="end">Schmitz Del Conte</text></g><g><rect x="988" y="58.039999999999566" height="1.3400000000001455" width="6" fill="#000"></rect><text x="982" y="58.70999999999964" dy="0.35em" text-anchor="end">Schmitz Elio</text></g><g><rect x="988" y="69.37999999999971" height="1.3399999999999181" width="6" fill="#000"></rect><text x="982" y="70.04999999999967" dy="0.35em" text-anchor="end">Schmitz Ferrero</text></g><g><rect x="988" y="80.71999999999963" height="1.3400000000001455" width="6" fill="#000"></rect><text x="982" y="81.3899999999997" dy="0.35em" text-anchor="end">Schmitz Frescura</text></g><g><rect x="988" y="92.05999999999977" height="1.3399999999999181" width="6" fill="#000"></rect><text x="982" y="92.72999999999973" dy="0.35em" text-anchor="end">Schmitz Frizzi Freiberger</text></g><g><rect x="988" y="103.3999999999997" height="18.760000000000105" width="6" fill="#000"></rect><text x="982" y="112.77999999999975" dy="0.35em" text-anchor="end">Schmitz Henri Michel</text></g><g><rect x="988" y="132.1599999999998" height="10.720000000000027" width="6" fill="#000"></rect><text x="982" y="137.5199999999998" dy="0.35em" text-anchor="end">Schmitz Joyce</text></g><g><rect x="988" y="152.87999999999982" height="1.3400000000000318" width="6" fill="#000"></rect><text x="982" y="153.54999999999984" dy="0.35em" text-anchor="end">Schmitz Letizia</text></g><g><rect x="988" y="164.21999999999986" height="459.6199999999998" width="6" fill="#000"></rect><text x="982" y="394.02999999999975" dy="0.35em" text-anchor="end">Schmitz Livia</text></g><g><rect x="988" y="633.8399999999997" height="1.3400000000001455" width="6" fill="#000"></rect><text x="982" y="634.5099999999998" dy="0.35em" text-anchor="end">Schmitz Menassé</text></g><g><rect x="988" y="645.1799999999998" height="1.3400000000002592" width="6" fill="#000"></rect><text x="982" y="645.8499999999999" dy="0.35em" text-anchor="end">Schmitz Morreale</text></g><g><rect x="988" y="656.5200000000001" height="1.3400000000000318" width="6" fill="#000"></rect><text x="982" y="657.19" dy="0.35em" text-anchor="end">Schmitz Nella</text></g><g><rect x="988" y="667.8600000000001" height="2.6799999999998363" width="6" fill="#000"></rect><text x="982" y="669.2" dy="0.35em" text-anchor="end">Schmitz Olga</text></g><g><rect x="988" y="680.54" height="4.019999999999982" width="6" fill="#000"></rect><text x="982" y="682.55" dy="0.35em" text-anchor="end">Schmitz Ottavio</text></g><g><rect x="988" y="694.56" height="10.720000000000027" width="6" fill="#000"></rect><text x="982" y="699.92" dy="0.35em" text-anchor="end">Schmitz Pasini</text></g><g><rect x="988" y="715.28" height="1.3400000000001455" width="6" fill="#000"></rect><text x="982" y="715.95" dy="0.35em" text-anchor="end">Schmitz Piceni</text></g><g><rect x="988" y="726.6200000000001" height="14.740000000000009" width="6" fill="#000"></rect><text x="982" y="733.9900000000001" dy="0.35em" text-anchor="end">Schmitz Prezzolini</text></g><g><rect x="988" y="751.3600000000001" height="1.3400000000001455" width="6" fill="#000"></rect><text x="982" y="752.0300000000002" dy="0.35em" text-anchor="end">Schmitz Rendi</text></g><g><rect x="988" y="762.7000000000003" height="1.3400000000001455" width="6" fill="#000"></rect><text x="982" y="763.3700000000003" dy="0.35em" text-anchor="end">Schmitz Rocca</text></g><g><rect x="988" y="774.0400000000004" height="1.3399999999999181" width="6" fill="#000"></rect><text x="982" y="774.7100000000004" dy="0.35em" text-anchor="end">Schmitz Rossi</text></g><g><rect x="988" y="785.3800000000003" height="1.3399999999999181" width="6" fill="#000"></rect><text x="982" y="786.0500000000003" dy="0.35em" text-anchor="end">Schmitz Rusconi Besso</text></g><g><rect x="988" y="796.7200000000003" height="1.3400000000001455" width="6" fill="#000"></rect><text x="982" y="797.3900000000003" dy="0.35em" text-anchor="end">Schmitz Somaré</text></g><g><rect x="988" y="808.0600000000004" height="1.3400000000000318" width="6" fill="#000"></rect><text x="982" y="808.7300000000005" dy="0.35em" text-anchor="end">Schmitz Tedeschi</text></g><g><rect x="988" y="819.4000000000004" height="4.019999999999982" width="6" fill="#000"></rect><text x="982" y="821.4100000000004" dy="0.35em" text-anchor="end">Schmitz Treves</text></g><g><rect x="988" y="833.4200000000004" height="2.67999999999995" width="6" fill="#000"></rect><text x="982" y="834.7600000000004" dy="0.35em" text-anchor="end">Schmitz Tribel</text></g><g><rect x="988" y="846.1000000000004" height="5.360000000000127" width="6" fill="#000"></rect><text x="982" y="848.7800000000004" dy="0.35em" text-anchor="end">Svevo Comnène</text></g><g><rect x="988" y="861.4600000000005" height="10.720000000000027" width="6" fill="#000"></rect><text x="982" y="866.8200000000005" dy="0.35em" text-anchor="end">Svevo Crémieux</text></g><g><rect x="988" y="882.1800000000005" height="14.740000000000009" width="6" fill="#000"></rect><text x="982" y="889.5500000000005" dy="0.35em" text-anchor="end">Svevo Jahier</text></g><g><rect x="988" y="906.9200000000005" height="10.720000000000027" width="6" fill="#000"></rect><text x="982" y="912.2800000000005" dy="0.35em" text-anchor="end">Svevo Larbaud</text></g><g><rect x="988" y="927.6400000000006" height="72.3599999999999" width="6" fill="#000"></rect><text x="982" y="963.8200000000005" dy="0.35em" text-anchor="end">Svevo Montale</text></g><g><rect x="0" y="144.99999999999994" height="301.5" width="6" fill="#000"></rect><text x="12" y="295.74999999999994" dy="0.35em" text-anchor="start">family</text></g><g><rect x="0" y="456.49999999999994" height="29.480000000000018" width="6" fill="#000"></rect><text x="12" y="471.23999999999995" dy="0.35em" text-anchor="start">health</text></g><g><rect x="0" y="495.97999999999996" height="194.29999999999995" width="6" fill="#000"></rect><text x="12" y="593.1299999999999" dy="0.35em" text-anchor="start">literature</text></g><g><rect x="0" y="700.28" height="87.10000000000014" width="6" fill="#000"></rect><text x="12" y="743.83" dy="0.35em" text-anchor="start">travel</text></g><g><rect x="0" y="797.3800000000001" height="57.620000000000005" width="6" fill="#000"></rect><text x="12" y="826.19" dy="0.35em" text-anchor="start">work</text></g><g><rect x="494" y="19.999999999999602" height="1.3400000000001455" width="6" fill="#000"></rect><text x="488" y="20.669999999999675" dy="0.35em" text-anchor="end">1885</text></g><g><rect x="494" y="31.339999999999748" height="9.38000000000011" width="6" fill="#000"></rect><text x="488" y="36.0299999999998" dy="0.35em" text-anchor="end">1895</text></g><g><rect x="494" y="50.71999999999986" height="14.740000000000009" width="6" fill="#000"></rect><text x="488" y="58.08999999999986" dy="0.35em" text-anchor="end">1896</text></g><g><rect x="494" y="75.45999999999987" height="8.040000000000191" width="6" fill="#000"></rect><text x="488" y="79.47999999999996" dy="0.35em" text-anchor="end">1897</text></g><g><rect x="494" y="93.50000000000006" height="21.440000000000055" width="6" fill="#000"></rect><text x="488" y="104.22000000000008" dy="0.35em" text-anchor="end">1898</text></g><g><rect x="494" y="124.94000000000011" height="17.420000000000073" width="6" fill="#000"></rect><text x="488" y="133.65000000000015" dy="0.35em" text-anchor="end">1899</text></g><g><rect x="494" y="152.36000000000018" height="20.100000000000023" width="6" fill="#000"></rect><text x="488" y="162.4100000000002" dy="0.35em" text-anchor="end">1900</text></g><g><rect x="494" y="182.4600000000002" height="56.27999999999997" width="6" fill="#000"></rect><text x="488" y="210.6000000000002" dy="0.35em" text-anchor="end">1901</text></g><g><rect x="494" y="248.74000000000018" height="8.039999999999964" width="6" fill="#000"></rect><text x="488" y="252.76000000000016" dy="0.35em" text-anchor="end">1902</text></g><g><rect x="494" y="266.78000000000014" height="48.24000000000001" width="6" fill="#000"></rect><text x="488" y="290.90000000000015" dy="0.35em" text-anchor="end">1903</text></g><g><rect x="494" y="325.02000000000015" height="18.75999999999999" width="6" fill="#000"></rect><text x="488" y="334.40000000000015" dy="0.35em" text-anchor="end">1904</text></g><g><rect x="494" y="353.78000000000014" height="26.799999999999955" width="6" fill="#000"></rect><text x="488" y="367.1800000000001" dy="0.35em" text-anchor="end">1905</text></g><g><rect x="494" y="390.5800000000001" height="21.440000000000055" width="6" fill="#000"></rect><text x="488" y="401.3000000000001" dy="0.35em" text-anchor="end">1906</text></g><g><rect x="494" y="422.02000000000015" height="9.379999999999995" width="6" fill="#000"></rect><text x="488" y="426.71000000000015" dy="0.35em" text-anchor="end">1907</text></g><g><rect x="494" y="441.40000000000015" height="49.579999999999814" width="6" fill="#000"></rect><text x="488" y="466.19000000000005" dy="0.35em" text-anchor="end">1908</text></g><g><rect x="494" y="500.97999999999996" height="5.3599999999999" width="6" fill="#000"></rect><text x="488" y="503.6599999999999" dy="0.35em" text-anchor="end">1909</text></g><g><rect x="494" y="516.3399999999999" height="26.79999999999984" width="6" fill="#000"></rect><text x="488" y="529.7399999999998" dy="0.35em" text-anchor="end">1910</text></g><g><rect x="494" y="553.1399999999998" height="32.16000000000025" width="6" fill="#000"></rect><text x="488" y="569.2199999999999" dy="0.35em" text-anchor="end">1911</text></g><g><rect x="494" y="595.3" height="13.399999999999977" width="6" fill="#000"></rect><text x="488" y="602" dy="0.35em" text-anchor="end">1912</text></g><g><rect x="494" y="618.6999999999999" height="44.22000000000003" width="6" fill="#000"></rect><text x="488" y="640.81" dy="0.35em" text-anchor="end">1913</text></g><g><rect x="494" y="672.92" height="10.719999999999942" width="6" fill="#000"></rect><text x="488" y="678.28" dy="0.35em" text-anchor="end">1914</text></g><g><rect x="494" y="693.6399999999999" height="1.3400000000001455" width="6" fill="#000"></rect><text x="488" y="694.31" dy="0.35em" text-anchor="end">1915</text></g><g><rect x="494" y="704.98" height="4.019999999999982" width="6" fill="#000"></rect><text x="488" y="706.99" dy="0.35em" text-anchor="end">1918</text></g><g><rect x="494" y="719" height="1.3400000000000318" width="6" fill="#000"></rect><text x="488" y="719.6700000000001" dy="0.35em" text-anchor="end">1919</text></g><g><rect x="494" y="730.34" height="10.720000000000255" width="6" fill="#000"></rect><text x="488" y="735.7000000000002" dy="0.35em" text-anchor="end">1922</text></g><g><rect x="494" y="751.0600000000003" height="9.38000000000011" width="6" fill="#000"></rect><text x="488" y="755.7500000000003" dy="0.35em" text-anchor="end">1924</text></g><g><rect x="494" y="770.4400000000004" height="14.740000000000009" width="6" fill="#000"></rect><text x="488" y="777.8100000000004" dy="0.35em" text-anchor="end">1925</text></g><g><rect x="494" y="795.1800000000004" height="76.38000000000011" width="6" fill="#000"></rect><text x="488" y="833.3700000000005" dy="0.35em" text-anchor="end">1926</text></g><g><rect x="494" y="881.5600000000005" height="57.61999999999966" width="6" fill="#000"></rect><text x="488" y="910.3700000000003" dy="0.35em" text-anchor="end">1927</text></g><g><rect x="494" y="949.1800000000002" height="30.820000000000164" width="6" fill="#000"></rect><text x="488" y="964.5900000000003" dy="0.35em" text-anchor="end">1928</text></g></g></g></svg>