<svg width="800" height="600" xmlns="http://www.w3.org/2000/svg" version="1.1"><g transform="translate(100,100)"><g class="arc"><path d="M5.5106685543048806e-15,-89.9960471564801A89.9960471564801,89.9960471564801,0,0,1,81.74915551398766,37.63461274599821L0,0Z" style="fill: rgb(0, 104, 55);"></path></g><g class="arc"><path d="M-89.32631198369583,10.958945714932083A89.9960471564801,89.9960471564801,0,0,1,-79.16854706889467,-42.79754267234977L0,0Z" style="fill: rgb(26, 152, 80);"></path></g><g class="arc"><path d="M81.74915551398766,37.63461274599821A89.9960471564801,89.9960471564801,0,0,1,6.021241690478676,89.7943937687439L0,0Z" style="fill: rgb(102, 189, 99);"></path></g><g class="arc"><path d="M-79.16854706889467,-42.79754267234977A89.9960471564801,89.9960471564801,0,0,1,-61.70791475967474,-65.50894412066269L0,0Z" style="fill: rgb(166, 217, 106);"></path></g><g class="arc"><path d="M-60.49048836623619,66.63474559871625A89.9960471564801,89.9960471564801,0,0,1,-89.32631198369583,10.958945714932083L0,0Z" style="fill: rgb(217, 239, 139);"></path></g><g class="arc"><path d="M-12.816078984014696,-89.07882252963881A89.9960471564801,89.9960471564801,0,0,1,-1.653200566291464e-14,-89.9960471564801L0,0Z" style="fill: rgb(254, 224, 139);"></path></g><g class="arc"><path d="M-61.70791475967474,-65.50894412066269A89.9960471564801,89.9960471564801,0,0,1,-45.21941775773627,-77.81062113518126L0,0Z" style="fill: rgb(253, 174, 97);"></path></g><g class="arc"><path d="M-26.59702367292467,-85.97608292736577A89.9960471564801,89.9960471564801,0,0,1,-12.816078984014696,-89.07882252963881L0,0Z" style="fill: rgb(244, 109, 67);"></path></g><g class="arc"><path d="M-45.21941775773627,-77.81062113518126A89.9960471564801,89.9960471564801,0,0,1,-26.59702367292467,-85.97608292736577L0,0Z" style="fill: rgb(215, 48, 39);"></path></g><g class="arc"><path d="M6.021241690478676,89.7943937687439A89.9960471564801,89.9960471564801,0,0,1,-60.49048836623619,66.63474559871625L0,0Z" style="fill: rgb(165, 0, 38);"></path></g><text y="99.9960471564801" style="text-anchor: middle; font-size: 11px; font-family: Arial, Helvetica;">Schmitz Henri Michel</text></g><g transform="translate(300,100)"><g class="arc"><path d="M5.212708591855263e-15,-85.12999169204629A85.12999169204629,85.12999169204629,0,0,1,58.61123892709423,61.740085494911206L0,0Z" style="fill: rgb(0, 104, 55);"></path></g><g class="arc"><path d="M-32.26036246260714,78.78060991937724A85.12999169204629,85.12999169204629,0,0,1,-78.92939884197516,31.894599604514283L0,0Z" style="fill: rgb(26, 152, 80);"></path></g><g class="arc"><path d="M58.61123892709423,61.740085494911206A85.12999169204629,85.12999169204629,0,0,1,-32.26036246260714,78.78060991937724L0,0Z" style="fill: rgb(102, 189, 99);"></path></g><g class="arc"><path d="M-67.43659848632704,-51.955949323266A85.12999169204629,85.12999169204629,0,0,1,-49.86439457623884,-68.99751907882654L0,0Z" style="fill: rgb(166, 217, 106);"></path></g><g class="arc"><path d="M-78.92939884197516,31.894599604514283A85.12999169204629,85.12999169204629,0,0,1,-82.23000399635707,-22.030477258719795L0,0Z" style="fill: rgb(217, 239, 139);"></path></g><g class="arc"><path d="M-35.98976625128752,-77.1482482669928A85.12999169204629,85.12999169204629,0,0,1,-21.24080938575465,-82.43751271190747L0,0Z" style="fill: rgb(254, 224, 139);"></path></g><g class="arc"><path d="M-8.086520320426423,-84.74505103305562A85.12999169204629,85.12999169204629,0,0,1,-9.124874726569225e-14,-85.12999169204629L0,0Z" style="fill: rgb(253, 174, 97);"></path></g><g class="arc"><path d="M-21.24080938575465,-82.43751271190747A85.12999169204629,85.12999169204629,0,0,1,-8.086520320426423,-84.74505103305562L0,0Z" style="fill: rgb(244, 109, 67);"></path></g><g class="arc"><path d="M-49.86439457623884,-68.99751907882654A85.12999169204629,85.12999169204629,0,0,1,-35.98976625128752,-77.1482482669928L0,0Z" style="fill: rgb(215, 48, 39);"></path></g><g class="arc"><path d="M-82.23000399635707,-22.030477258719795A85.12999169204629,85.12999169204629,0,0,1,-67.43659848632704,-51.955949323266L0,0Z" style="fill: rgb(165, 0, 38);"></path></g><text y="95.12999169204629" style="text-anchor: middle; font-size: 11px; font-family: Arial, Helvetica;">Schmitz Joyce</text></g><g transform="translate(500,100)"><g class="arc"><path d="M5.510616686809272e-15,-89.99520009599466A89.99520009599466,89.99520009599466,0,0,1,89.70404388642363,-7.233294597947736L0,0Z" style="fill: rgb(0, 104, 55);"></path></g><g class="arc"><path d="M-20.916710572575525,87.53072180178354A89.99520009599466,89.99520009599466,0,0,1,-71.783627460354,54.279341088034855L0,0Z" style="fill: rgb(26, 152, 80);"></path></g><g class="arc"><path d="M49.27489675655604,75.3068429158258A89.99520009599466,89.99520009599466,0,0,1,-20.916710572575525,87.53072180178354L0,0Z" style="fill: rgb(102, 189, 99);"></path></g><g class="arc"><path d="M-18.162355448997083,-88.14343358902241A89.99520009599466,89.99520009599466,0,0,1,-1.7639543926414201e-13,-89.99520009599466L0,0Z" style="fill: rgb(166, 217, 106);"></path></g><g class="arc"><path d="M-71.783627460354,54.279341088034855A89.99520009599466,89.99520009599466,0,0,1,-89.65633234024267,7.802442669707601L0,0Z" style="fill: rgb(217, 239, 139);"></path></g><g class="arc"><path d="M-89.65633234024267,7.802442669707601A89.99520009599466,89.99520009599466,0,0,1,-81.68606738406494,-37.769331945960054L0,0Z" style="fill: rgb(254, 224, 139);"></path></g><g class="arc"><path d="M-59.08395323826743,-67.88388991547512A89.99520009599466,89.99520009599466,0,0,1,-39.60477872126392,-80.8121125992746L0,0Z" style="fill: rgb(253, 174, 97);"></path></g><g class="arc"><path d="M-39.60477872126392,-80.8121125992746A89.99520009599466,89.99520009599466,0,0,1,-18.162355448997083,-88.14343358902241L0,0Z" style="fill: rgb(244, 109, 67);"></path></g><g class="arc"><path d="M-81.68606738406494,-37.769331945960054A89.99520009599466,89.99520009599466,0,0,1,-59.08395323826743,-67.88388991547512L0,0Z" style="fill: rgb(215, 48, 39);"></path></g><g class="arc"><path d="M89.70404388642363,-7.233294597947736A89.99520009599466,89.99520009599466,0,0,1,49.27489675655604,75.3068429158258L0,0Z" style="fill: rgb(165, 0, 38);"></path></g><text y="99.99520009599466" style="text-anchor: middle; font-size: 11px; font-family: Arial, Helvetica;">Schmitz Letizia</text></g><g transform="translate(700,100)"><g class="arc"><path d="M5.476158848890599e-15,-89.4324608973512A89.4324608973512,89.4324608973512,0,0,1,85.89658222201057,-24.898639013681674L0,0Z" style="fill: rgb(0, 104, 55);"></path></g><g class="arc"><path d="M-58.80029029246527,67.38464902096077A89.4324608973512,89.4324608973512,0,0,1,-84.30030721685162,29.860061374697242L0,0Z" style="fill: rgb(26, 152, 80);"></path></g><g class="arc"><path d="M-0.24667651237129318,89.43212069974913A89.4324608973512,89.4324608973512,0,0,1,-58.80029029246527,67.38464902096077L0,0Z" style="fill: rgb(102, 189, 99);"></path></g><g class="arc"><path d="M-48.86679800014199,-74.90127579266972A89.4324608973512,89.4324608973512,0,0,1,-24.704717196393403,-85.9525567415099L0,0Z" style="fill: rgb(166, 217, 106);"></path></g><g class="arc"><path d="M67.43155602539092,58.7464919305895A89.4324608973512,89.4324608973512,0,0,1,-0.24667651237129318,89.43212069974913L0,0Z" style="fill: rgb(217, 239, 139);"></path></g><g class="arc"><path d="M-84.30030721685162,29.860061374697242A89.4324608973512,89.4324608973512,0,0,1,-88.14707813892652,-15.108199023253423L0,0Z" style="fill: rgb(254, 224, 139);"></path></g><g class="arc"><path d="M-24.704717196393403,-85.9525567415099A89.4324608973512,89.4324608973512,0,0,1,6.300350524303083e-14,-89.4324608973512L0,0Z" style="fill: rgb(253, 174, 97);"></path></g><g class="arc"><path d="M-72.967467333458,-51.709900145881086A89.4324608973512,89.4324608973512,0,0,1,-48.86679800014199,-74.90127579266972L0,0Z" style="fill: rgb(244, 109, 67);"></path></g><g class="arc"><path d="M-88.14707813892652,-15.108199023253423A89.4324608973512,89.4324608973512,0,0,1,-72.967467333458,-51.709900145881086L0,0Z" style="fill: rgb(215, 48, 39);"></path></g><g class="arc"><path d="M85.89658222201057,-24.898639013681674A89.4324608973512,89.4324608973512,0,0,1,67.43155602539092,58.7464919305895L0,0Z" style="fill: rgb(165, 0, 38);"></path></g><text y="99.4324608973512" style="text-anchor: middle; font-size: 11px; font-family: Arial, Helvetica;">Schmitz Livia</text></g><g transform="translate(100,300)"><g class="arc"><path d="M88.5125318922209,-16.288514607173536A89.99880004799802,89.99880004799802,0,0,1,57.80534010759687,68.98062528800808L0,0Z" style="fill: rgb(0, 104, 55);"></path></g><g class="arc"><path d="M-41.25034582298196,-79.98870532496399A89.99880004799802,89.99880004799802,0,0,1,-13.642832680305355,-88.95873833714549L0,0Z" style="fill: rgb(26, 152, 80);"></path></g><g class="arc"><path d="M57.80534010759687,68.98062528800808A89.99880004799802,89.99880004799802,0,0,1,-10.443230554941765,89.39084374619058L0,0Z" style="fill: rgb(102, 189, 99);"></path></g><g class="arc"><path d="M-13.642832680305355,-88.95873833714549A89.99880004799802,89.99880004799802,0,0,1,6.340248064065591e-14,-89.99880004799802L0,0Z" style="fill: rgb(166, 217, 106);"></path></g><g class="arc"><path d="M-89.05947881617737,12.968933767676601A89.99880004799802,89.99880004799802,0,0,1,-86.02952193655841,-26.43303549437222L0,0Z" style="fill: rgb(217, 239, 139);"></path></g><g class="arc"><path d="M-65.66333056952301,61.54763219326209A89.99880004799802,89.99880004799802,0,0,1,-89.05947881617737,12.968933767676601L0,0Z" style="fill: rgb(254, 224, 139);"></path></g><g class="arc"><path d="M-67.02724253342465,-60.05941032382018A89.99880004799802,89.99880004799802,0,0,1,-41.25034582298196,-79.98870532496399L0,0Z" style="fill: rgb(253, 174, 97);"></path></g><g class="arc"><path d="M-86.02952193655841,-26.43303549437222A89.99880004799802,89.99880004799802,0,0,1,-67.02724253342465,-60.05941032382018L0,0Z" style="fill: rgb(244, 109, 67);"></path></g><g class="arc"><path d="M-10.443230554941765,89.39084374619058A89.99880004799802,89.99880004799802,0,0,1,-65.66333056952301,61.54763219326209L0,0Z" style="fill: rgb(215, 48, 39);"></path></g><g class="arc"><path d="M5.510837120294172e-15,-89.99880004799802A89.99880004799802,89.99880004799802,0,0,1,88.5125318922209,-16.288514607173536L0,0Z" style="fill: rgb(165, 0, 38);"></path></g><text y="99.99880004799802" style="text-anchor: middle; font-size: 11px; font-family: Arial, Helvetica;">Schmitz Ottavio</text></g><g transform="translate(300,300)"><g class="arc"><path d="M5.510731914503562e-15,-89.99708190705023A89.99708190705023,89.99708190705023,0,0,1,87.07611976971458,22.742561808965828L0,0Z" style="fill: rgb(0, 104, 55);"></path></g><g class="arc"><path d="M31.812257484855465,84.18702409220535A89.99708190705023,89.99708190705023,0,0,1,-35.931387093087736,82.51309092108353L0,0Z" style="fill: rgb(26, 152, 80);"></path></g><g class="arc"><path d="M87.07611976971458,22.742561808965828A89.99708190705023,89.99708190705023,0,0,1,31.812257484855465,84.18702409220535L0,0Z" style="fill: rgb(102, 189, 99);"></path></g><g class="arc"><path d="M-86.00406573476586,-26.509911898653698A89.99708190705023,89.99708190705023,0,0,1,-70.15051035109782,-56.37712877812088L0,0Z" style="fill: rgb(166, 217, 106);"></path></g><g class="arc"><path d="M-35.931387093087736,82.51309092108353A89.99708190705023,89.99708190705023,0,0,1,-82.6143564041977,35.6979392641159L0,0Z" style="fill: rgb(217, 239, 139);"></path></g><g class="arc"><path d="M-48.83405786875333,-75.595697918966A89.99708190705023,89.99708190705023,0,0,1,-25.666137299597715,-86.25963220361253L0,0Z" style="fill: rgb(254, 224, 139);"></path></g><g class="arc"><path d="M-10.63692036462367,-89.36627259173878A89.99708190705023,89.99708190705023,0,0,1,-1.6532195743510686e-14,-89.99708190705023L0,0Z" style="fill: rgb(253, 174, 97);"></path></g><g class="arc"><path d="M-25.666137299597715,-86.25963220361253A89.99708190705023,89.99708190705023,0,0,1,-10.63692036462367,-89.36627259173878L0,0Z" style="fill: rgb(244, 109, 67);"></path></g><g class="arc"><path d="M-70.15051035109782,-56.37712877812088A89.99708190705023,89.99708190705023,0,0,1,-48.83405786875333,-75.595697918966L0,0Z" style="fill: rgb(215, 48, 39);"></path></g><g class="arc"><path d="M-82.6143564041977,35.6979392641159A89.99708190705023,89.99708190705023,0,0,1,-86.00406573476586,-26.509911898653698L0,0Z" style="fill: rgb(165, 0, 38);"></path></g><text y="99.99708190705023" style="text-anchor: middle; font-size: 11px; font-family: Arial, Helvetica;">Schmitz Pasini</text></g><g transform="translate(500,300)"><g class="arc"><path d="M5.510804974293464e-15,-89.99827506396622A89.99827506396622,89.99827506396622,0,0,1,89.29994724765133,11.189679890685571L0,0Z" style="fill: rgb(0, 104, 55);"></path></g><g class="arc"><path d="M-85.17546987238823,29.065939628837178A89.99827506396622,89.99827506396622,0,0,1,-88.69017450838713,-15.288638270335356L0,0Z" style="fill: rgb(26, 152, 80);"></path></g><g class="arc"><path d="M89.29994724765133,11.189679890685571A89.99827506396622,89.99827506396622,0,0,1,36.63759299165991,82.2032620658499L0,0Z" style="fill: rgb(102, 189, 99);"></path></g><g class="arc"><path d="M-53.99870756647536,-71.99881315438193A89.99827506396622,89.99827506396622,0,0,1,-33.64667594838423,-83.47209540986584L0,0Z" style="fill: rgb(166, 217, 106);"></path></g><g class="arc"><path d="M-43.49081178614782,78.7923778335899A89.99827506396622,89.99827506396622,0,0,1,-85.17546987238823,29.065939628837178L0,0Z" style="fill: rgb(217, 239, 139);"></path></g><g class="arc"><path d="M-72.49824778559145,-53.32629353806908A89.99827506396622,89.99827506396622,0,0,1,-53.99870756647536,-71.99881315438193L0,0Z" style="fill: rgb(254, 224, 139);"></path></g><g class="arc"><path d="M-88.69017450838713,-15.288638270335356A89.99827506396622,89.99827506396622,0,0,1,-72.49824778559145,-53.32629353806908L0,0Z" style="fill: rgb(253, 174, 97);"></path></g><g class="arc"><path d="M-33.64667594838423,-83.47209540986584A89.99827506396622,89.99827506396622,0,0,1,-15.491762828813437,-88.65491976729277L0,0Z" style="fill: rgb(244, 109, 67);"></path></g><g class="arc"><path d="M-15.491762828813437,-88.65491976729277A89.99827506396622,89.99827506396622,0,0,1,6.34021107991703e-14,-89.99827506396622L0,0Z" style="fill: rgb(215, 48, 39);"></path></g><g class="arc"><path d="M36.63759299165991,82.2032620658499A89.99827506396622,89.99827506396622,0,0,1,-43.49081178614782,78.7923778335899L0,0Z" style="fill: rgb(165, 0, 38);"></path></g><text y="99.99827506396622" style="text-anchor: middle; font-size: 11px; font-family: Arial, Helvetica;">Schmitz Prezzolini</text></g><g transform="translate(700,300)"><g class="arc"><path d="M5.510717719917721e-15,-89.99685009187135A89.99685009187135,89.99685009187135,0,0,1,89.63671958153711,8.043104445402056L0,0Z" style="fill: rgb(0, 104, 55);"></path></g><g class="arc"><path d="M-20.860420702043214,87.54585012776181A89.99685009187135,89.99685009187135,0,0,1,-73.7894069960058,51.522387771109514L0,0Z" style="fill: rgb(26, 152, 80);"></path></g><g class="arc"><path d="M89.63671958153711,8.043104445402056A89.99685009187135,89.99685009187135,0,0,1,49.45466039581012,75.19088768989135L0,0Z" style="fill: rgb(102, 189, 99);"></path></g><g class="arc"><path d="M-89.40768180158008,-10.281024332534676A89.99685009187135,89.99685009187135,0,0,1,-78.46304397151859,-44.079289435995975L0,0Z" style="fill: rgb(166, 217, 106);"></path></g><g class="arc"><path d="M49.45466039581012,75.19088768989135A89.99685009187135,89.99685009187135,0,0,1,-20.860420702043214,87.54585012776181L0,0Z" style="fill: rgb(217, 239, 139);"></path></g><g class="arc"><path d="M-78.46304397151859,-44.079289435995975A89.99685009187135,89.99685009187135,0,0,1,-58.50528635805902,-68.38541141661925L0,0Z" style="fill: rgb(254, 224, 139);"></path></g><g class="arc"><path d="M-13.83313359565931,-88.9273717220036A89.99685009187135,89.99685009187135,0,0,1,-9.646541325234053e-14,-89.99685009187135L0,0Z" style="fill: rgb(253, 174, 97);"></path></g><g class="arc"><path d="M-35.92439914196713,-82.51588073060479A89.99685009187135,89.99685009187135,0,0,1,-13.83313359565931,-88.9273717220036L0,0Z" style="fill: rgb(244, 109, 67);"></path></g><g class="arc"><path d="M-58.50528635805902,-68.38541141661925A89.99685009187135,89.99685009187135,0,0,1,-35.92439914196713,-82.51588073060479L0,0Z" style="fill: rgb(215, 48, 39);"></path></g><g class="arc"><path d="M-73.7894069960058,51.522387771109514A89.99685009187135,89.99685009187135,0,0,1,-89.40768180158008,-10.281024332534676L0,0Z" style="fill: rgb(165, 0, 38);"></path></g><text y="99.99685009187135" style="text-anchor: middle; font-size: 11px; font-family: Arial, Helvetica;">Svevo Comnène</text></g><g transform="translate(100,500)"><g class="arc"><path d="M5.5107530085573976e-15,-89.99742639909235A89.99742639909235,89.99742639909235,0,0,1,89.89031047689679,-4.389628780107077L0,0Z" style="fill: rgb(0, 104, 55);"></path></g><g class="arc"><path d="M-29.07599338269158,85.171141634181A89.99742639909235,89.99742639909235,0,0,1,-74.63080664384951,50.2969130081399L0,0Z" style="fill: rgb(26, 152, 80);"></path></g><g class="arc"><path d="M89.89031047689679,-4.389628780107077A89.99742639909235,89.99742639909235,0,0,1,48.84004893683524,75.592237553254L0,0Z" style="fill: rgb(102, 189, 99);"></path></g><g class="arc"><path d="M-39.37982660088084,-80.92444633943813A89.99742639909235,89.99742639909235,0,0,1,-15.655081304816331,-88.62536424635802L0,0Z" style="fill: rgb(166, 217, 106);"></path></g><g class="arc"><path d="M-74.63080664384951,50.2969130081399A89.99742639909235,89.99742639909235,0,0,1,-89.90064549853851,-4.172612779320898L0,0Z" style="fill: rgb(217, 239, 139);"></path></g><g class="arc"><path d="M-89.90064549853851,-4.172612779320898A89.99742639909235,89.99742639909235,0,0,1,-79.11400102196099,-42.901184141666775L0,0Z" style="fill: rgb(254, 224, 139);"></path></g><g class="arc"><path d="M-15.655081304816331,-88.62536424635802A89.99742639909235,89.99742639909235,0,0,1,-1.653225902567219e-14,-89.99742639909235L0,0Z" style="fill: rgb(253, 174, 97);"></path></g><g class="arc"><path d="M-61.26873279832032,-65.92176529605432A89.99742639909235,89.99742639909235,0,0,1,-39.37982660088084,-80.92444633943813L0,0Z" style="fill: rgb(244, 109, 67);"></path></g><g class="arc"><path d="M-79.11400102196099,-42.901184141666775A89.99742639909235,89.99742639909235,0,0,1,-61.26873279832032,-65.92176529605432L0,0Z" style="fill: rgb(215, 48, 39);"></path></g><g class="arc"><path d="M48.84004893683524,75.592237553254A89.99742639909235,89.99742639909235,0,0,1,-29.07599338269158,85.171141634181L0,0Z" style="fill: rgb(165, 0, 38);"></path></g><text y="99.99742639909235" style="text-anchor: middle; font-size: 11px; font-family: Arial, Helvetica;">Svevo Crémieux</text></g><g transform="translate(300,500)"><g class="arc"><path d="M5.5109105961630896e-15,-90A90,90,0,0,1,89.2893258513224,11.287882397348472L0,0Z" style="fill: rgb(0, 104, 55);"></path></g><g class="arc"><path d="M-71.7570883755449,54.32237354777717A90,90,0,0,1,-89.64297476180658,8.00856265843672L0,0Z" style="fill: rgb(26, 152, 80);"></path></g><g class="arc"><path d="M89.2893258513224,11.287882397348472A90,90,0,0,1,46.74133756511038,76.9106453140552L0,0Z" style="fill: rgb(102, 189, 99);"></path></g><g class="arc"><path d="M-44.681045997855136,-78.12556642058702A90,90,0,0,1,-22.107109011433707,-87.24262565487462L0,0Z" style="fill: rgb(166, 217, 106);"></path></g><g class="arc"><path d="M-26.139768418209385,86.12033736024485A90,90,0,0,1,-71.7570883755449,54.32237354777717L0,0Z" style="fill: rgb(217, 239, 139);"></path></g><g class="arc"><path d="M-89.64297476180658,8.00856265843672A90,90,0,0,1,-84.73103548214033,-30.34224161337253L0,0Z" style="fill: rgb(254, 224, 139);"></path></g><g class="arc"><path d="M-22.107109011433707,-87.24262565487462A90,90,0,0,1,-9.646878956150053e-14,-90L0,0Z" style="fill: rgb(253, 174, 97);"></path></g><g class="arc"><path d="M-65.87259407996353,-61.32537280095698A90,90,0,0,1,-44.681045997855136,-78.12556642058702L0,0Z" style="fill: rgb(244, 109, 67);"></path></g><g class="arc"><path d="M-84.73103548214033,-30.34224161337253A90,90,0,0,1,-65.87259407996353,-61.32537280095698L0,0Z" style="fill: rgb(215, 48, 39);"></path></g><g class="arc"><path d="M46.74133756511038,76.9106453140552A90,90,0,0,1,-26.139768418209385,86.12033736024485L0,0Z" style="fill: rgb(165, 0, 38);"></path></g><text y="100" style="text-anchor: middle; font-size: 11px; font-family: Arial, Helvetica;">Svevo Jahier</text></g><g transform="translate(500,500)"><g class="arc"><path d="M5.323978262566055e-15,-86.94716331717547A86.94716331717547,86.94716331717547,0,0,1,86.94686109525212,-0.22924787134836686L0,0Z" style="fill: rgb(0, 104, 55);"></path></g><g class="arc"><path d="M-69.30724157201006,52.500623563750416A86.94716331717547,86.94716331717547,0,0,1,-85.86864213120332,13.652307770004233L0,0Z" style="fill: rgb(26, 152, 80);"></path></g><g class="arc"><path d="M49.38414544708866,71.56127016315722A86.94716331717547,86.94716331717547,0,0,1,-24.052686563869358,83.55403926779269L0,0Z" style="fill: rgb(102, 189, 99);"></path></g><g class="arc"><path d="M-23.37882139295993,-83.74508892573739A86.94716331717547,86.94716331717547,0,0,1,-1.5971934787698165e-14,-86.94716331717547L0,0Z" style="fill: rgb(166, 217, 106);"></path></g><g class="arc"><path d="M-24.052686563869358,83.55403926779269A86.94716331717547,86.94716331717547,0,0,1,-69.30724157201006,52.500623563750416L0,0Z" style="fill: rgb(217, 239, 139);"></path></g><g class="arc"><path d="M-85.86864213120332,13.652307770004233A86.94716331717547,86.94716331717547,0,0,1,-83.28312556648217,-24.974591183463794L0,0Z" style="fill: rgb(254, 224, 139);"></path></g><g class="arc"><path d="M-46.42617875590033,-73.51475453967572A86.94716331717547,86.94716331717547,0,0,1,-23.37882139295993,-83.74508892573739L0,0Z" style="fill: rgb(253, 174, 97);"></path></g><g class="arc"><path d="M-83.28312556648217,-24.974591183463794A86.94716331717547,86.94716331717547,0,0,1,-69.08632996021005,-52.79098617692765L0,0Z" style="fill: rgb(244, 109, 67);"></path></g><g class="arc"><path d="M-69.08632996021005,-52.79098617692765A86.94716331717547,86.94716331717547,0,0,1,-46.42617875590033,-73.51475453967572L0,0Z" style="fill: rgb(215, 48, 39);"></path></g><g class="arc"><path d="M86.94686109525212,-0.22924787134836686A86.94716331717547,86.94716331717547,0,0,1,49.38414544708866,71.56127016315722L0,0Z" style="fill: rgb(165, 0, 38);"></path></g><text y="96.94716331717547" style="text-anchor: middle; font-size: 11px; font-family: Arial, Helvetica;">Svevo Larbaud</text></g><g transform="translate(700,500)"><g class="arc"><path d="M5.466195405205875e-15,-89.26974551375389A89.26974551375389,89.26974551375389,0,0,1,86.15734993221953,23.36661115239977L0,0Z" style="fill: rgb(0, 104, 55);"></path></g><g class="arc"><path d="M-34.84429561156309,82.18857905709521A89.26974551375389,89.26974551375389,0,0,1,-77.49356586470464,44.31517475609305L0,0Z" style="fill: rgb(26, 152, 80);"></path></g><g class="arc"><path d="M38.91401953376905,80.3416862395595A89.26974551375389,89.26974551375389,0,0,1,-34.84429561156309,82.18857905709521L0,0Z" style="fill: rgb(102, 189, 99);"></path></g><g class="arc"><path d="M-59.5514067049855,-66.5035143699022A89.26974551375389,89.26974551375389,0,0,1,-39.91310867127388,-79.8500546041483L0,0Z" style="fill: rgb(166, 217, 106);"></path></g><g class="arc"><path d="M-77.49356586470464,44.31517475609305A89.26974551375389,89.26974551375389,0,0,1,-88.5867772070753,-11.021359632748824L0,0Z" style="fill: rgb(217, 239, 139);"></path></g><g class="arc"><path d="M-88.5867772070753,-11.021359632748824A89.26974551375389,89.26974551375389,0,0,1,-77.53598050522781,-44.240922133058156L0,0Z" style="fill: rgb(254, 224, 139);"></path></g><g class="arc"><path d="M-17.770162489546326,-87.4831914666212A89.26974551375389,89.26974551375389,0,0,1,-1.6398586215617622e-14,-89.26974551375389L0,0Z" style="fill: rgb(253, 174, 97);"></path></g><g class="arc"><path d="M-39.91310867127388,-79.8500546041483A89.26974551375389,89.26974551375389,0,0,1,-17.770162489546326,-87.4831914666212L0,0Z" style="fill: rgb(244, 109, 67);"></path></g><g class="arc"><path d="M-77.53598050522781,-44.240922133058156A89.26974551375389,89.26974551375389,0,0,1,-59.5514067049855,-66.5035143699022L0,0Z" style="fill: rgb(215, 48, 39);"></path></g><g class="arc"><path d="M86.15734993221953,23.36661115239977A89.26974551375389,89.26974551375389,0,0,1,38.91401953376905,80.3416862395595L0,0Z" style="fill: rgb(165, 0, 38);"></path></g><text y="99.26974551375389" style="text-anchor: middle; font-size: 11px; font-family: Arial, Helvetica;">Svevo Montale</text></g></svg>