<svg width="600" height="800" xmlns="http://www.w3.org/2000/svg" version="1.1"><g transform="translate(40,0)"><text x="-40" y="23" style="font-size: 10px; font-family: Arial, Helvetica;">family</text><g class="y axis" style="font-size: 10px; font-family: Arial, Helvetica;" transform="translate(0,30)" fill="none" font-size="10" font-family="sans-serif" text-anchor="end"><path class="domain" stroke="#000" d="M-6,126.5H0.5V0.5H-6" style="shape-rendering: crispedges; fill: none; stroke: rgb(204, 204, 204);"></path><g class="tick" opacity="1" transform="translate(0,126.5)"><line stroke="#000" x2="-6" style="shape-rendering: crispedges; fill: none; stroke: rgb(204, 204, 204);"></line><text fill="#000" x="-9" dy="0.32em">0.00</text></g><g class="tick" opacity="1" transform="translate(0,105.2402894206467)"><line stroke="#000" x2="-6" style="shape-rendering: crispedges; fill: none; stroke: rgb(204, 204, 204);"></line><text fill="#000" x="-9" dy="0.32em">0.05</text></g><g class="tick" opacity="1" transform="translate(0,83.98057884129341)"><line stroke="#000" x2="-6" style="shape-rendering: crispedges; fill: none; stroke: rgb(204, 204, 204);"></line><text fill="#000" x="-9" dy="0.32em">0.10</text></g><g class="tick" opacity="1" transform="translate(0,62.72086826194012)"><line stroke="#000" x2="-6" style="shape-rendering: crispedges; fill: none; stroke: rgb(204, 204, 204);"></line><text fill="#000" x="-9" dy="0.32em">0.15</text></g><g class="tick" opacity="1" transform="translate(0,41.461157682586816)"><line stroke="#000" x2="-6" style="shape-rendering: crispedges; fill: none; stroke: rgb(204, 204, 204);"></line><text fill="#000" x="-9" dy="0.32em">0.20</text></g><g class="tick" opacity="1" transform="translate(0,20.20144710323352)"><line stroke="#000" x2="-6" style="shape-rendering: crispedges; fill: none; stroke: rgb(204, 204, 204);"></line><text fill="#000" x="-9" dy="0.32em">0.25</text></g></g><rect transform="translate(0,30)" class="bar" x="8" width="50" y="98.97333308509005" height="27.026666914909953" style="fill: rgb(191, 105, 105);"></rect><rect transform="translate(0,30)" class="bar" x="63" width="50" y="64.37915407995607" height="61.620845920043934" style="fill: rgb(191, 156, 105);"></rect><rect transform="translate(0,30)" class="bar" x="118" width="50" y="105.49146586111719" height="20.50853413888281" style="fill: rgb(174, 191, 105);"></rect><rect transform="translate(0,30)" class="bar" x="173" width="50" y="93.57185479629311" height="32.42814520370689" style="fill: rgb(122, 191, 105);"></rect><rect transform="translate(0,30)" class="bar" x="228" width="50" y="92.454066457832" height="33.545933542168" style="fill: rgb(105, 191, 139);"></rect><rect transform="translate(0,30)" class="bar" x="283" width="50" y="59.26472912778166" height="66.73527087221834" style="fill: rgb(105, 191, 191);"></rect><rect transform="translate(0,30)" class="bar" x="338" width="50" y="45.026392295769455" height="80.97360770423055" style="fill: rgb(105, 139, 191);"></rect><rect transform="translate(0,30)" class="bar" x="393" width="50" y="89.86699589933113" height="36.13300410066887" style="fill: rgb(122, 105, 191);"></rect><rect transform="translate(0,30)" class="bar" x="448" width="50" y="108.14392184059989" height="17.856078159400113" style="fill: rgb(174, 105, 191);"></rect><rect transform="translate(0,30)" class="bar" x="503" width="50" y="77.6351977955996" height="48.364802204400405" style="fill: rgb(191, 105, 156);"></rect></g><g transform="translate(40,156)"><text x="-40" y="23" style="font-size: 10px; font-family: Arial, Helvetica;">health</text><g class="y axis" style="font-size: 10px; font-family: Arial, Helvetica;" transform="translate(0,30)" fill="none" font-size="10" font-family="sans-serif" text-anchor="end"><path class="domain" stroke="#000" d="M-6,126.5H0.5V0.5H-6" style="shape-rendering: crispedges; fill: none; stroke: rgb(204, 204, 204);"></path><g class="tick" opacity="1" transform="translate(0,126.5)"><line stroke="#000" x2="-6" style="shape-rendering: crispedges; fill: none; stroke: rgb(204, 204, 204);"></line><text fill="#000" x="-9" dy="0.32em">0.00</text></g><g class="tick" opacity="1" transform="translate(0,105.2402894206467)"><line stroke="#000" x2="-6" style="shape-rendering: crispedges; fill: none; stroke: rgb(204, 204, 204);"></line><text fill="#000" x="-9" dy="0.32em">0.05</text></g><g class="tick" opacity="1" transform="translate(0,83.98057884129341)"><line stroke="#000" x2="-6" style="shape-rendering: crispedges; fill: none; stroke: rgb(204, 204, 204);"></line><text fill="#000" x="-9" dy="0.32em">0.10</text></g><g class="tick" opacity="1" transform="translate(0,62.72086826194012)"><line stroke="#000" x2="-6" style="shape-rendering: crispedges; fill: none; stroke: rgb(204, 204, 204);"></line><text fill="#000" x="-9" dy="0.32em">0.15</text></g><g class="tick" opacity="1" transform="translate(0,41.461157682586816)"><line stroke="#000" x2="-6" style="shape-rendering: crispedges; fill: none; stroke: rgb(204, 204, 204);"></line><text fill="#000" x="-9" dy="0.32em">0.20</text></g><g class="tick" opacity="1" transform="translate(0,20.20144710323352)"><line stroke="#000" x2="-6" style="shape-rendering: crispedges; fill: none; stroke: rgb(204, 204, 204);"></line><text fill="#000" x="-9" dy="0.32em">0.25</text></g></g><rect transform="translate(0,30)" class="bar" x="8" width="50" y="100.5192705201642" height="25.4807294798358" style="fill: rgb(191, 105, 105);"></rect><rect transform="translate(0,30)" class="bar" x="63" width="50" y="83.09597134990328" height="42.90402865009672" style="fill: rgb(191, 156, 105);"></rect><rect transform="translate(0,30)" class="bar" x="118" width="50" y="107.40161864498938" height="18.598381355010616" style="fill: rgb(174, 191, 105);"></rect><rect transform="translate(0,30)" class="bar" x="173" width="50" y="92.8039282808207" height="33.1960717191793" style="fill: rgb(122, 191, 105);"></rect><rect transform="translate(0,30)" class="bar" x="228" width="50" y="94.52403213678657" height="31.475967863213427" style="fill: rgb(105, 191, 139);"></rect><rect transform="translate(0,30)" class="bar" x="283" width="50" y="48.11601664302009" height="77.88398335697991" style="fill: rgb(105, 191, 191);"></rect><rect transform="translate(0,30)" class="bar" x="338" width="50" y="44.42262510509788" height="81.57737489490212" style="fill: rgb(105, 139, 191);"></rect><rect transform="translate(0,30)" class="bar" x="393" width="50" y="96.30018432064345" height="29.699815679356547" style="fill: rgb(122, 105, 191);"></rect><rect transform="translate(0,30)" class="bar" x="448" width="50" y="109.56237832023638" height="16.437621679763623" style="fill: rgb(174, 105, 191);"></rect><rect transform="translate(0,30)" class="bar" x="503" width="50" y="77.40223431656011" height="48.59776568343989" style="fill: rgb(191, 105, 156);"></rect></g><g transform="translate(40,312)"><text x="-40" y="23" style="font-size: 10px; font-family: Arial, Helvetica;">literature</text><g class="y axis" style="font-size: 10px; font-family: Arial, Helvetica;" transform="translate(0,30)" fill="none" font-size="10" font-family="sans-serif" text-anchor="end"><path class="domain" stroke="#000" d="M-6,126.5H0.5V0.5H-6" style="shape-rendering: crispedges; fill: none; stroke: rgb(204, 204, 204);"></path><g class="tick" opacity="1" transform="translate(0,126.5)"><line stroke="#000" x2="-6" style="shape-rendering: crispedges; fill: none; stroke: rgb(204, 204, 204);"></line><text fill="#000" x="-9" dy="0.32em">0.00</text></g><g class="tick" opacity="1" transform="translate(0,105.2402894206467)"><line stroke="#000" x2="-6" style="shape-rendering: crispedges; fill: none; stroke: rgb(204, 204, 204);"></line><text fill="#000" x="-9" dy="0.32em">0.05</text></g><g class="tick" opacity="1" transform="translate(0,83.98057884129341)"><line stroke="#000" x2="-6" style="shape-rendering: crispedges; fill: none; stroke: rgb(204, 204, 204);"></line><text fill="#000" x="-9" dy="0.32em">0.10</text></g><g class="tick" opacity="1" transform="translate(0,62.72086826194012)"><line stroke="#000" x2="-6" style="shape-rendering: crispedges; fill: none; stroke: rgb(204, 204, 204);"></line><text fill="#000" x="-9" dy="0.32em">0.15</text></g><g class="tick" opacity="1" transform="translate(0,41.461157682586816)"><line stroke="#000" x2="-6" style="shape-rendering: crispedges; fill: none; stroke: rgb(204, 204, 204);"></line><text fill="#000" x="-9" dy="0.32em">0.20</text></g><g class="tick" opacity="1" transform="translate(0,20.20144710323352)"><line stroke="#000" x2="-6" style="shape-rendering: crispedges; fill: none; stroke: rgb(204, 204, 204);"></line><text fill="#000" x="-9" dy="0.32em">0.25</text></g></g><rect transform="translate(0,30)" class="bar" x="8" width="50" y="109.89217707814545" height="16.10782292185455" style="fill: rgb(191, 105, 105);"></rect><rect transform="translate(0,30)" class="bar" x="63" width="50" y="83.26006432604274" height="42.73993567395726" style="fill: rgb(191, 156, 105);"></rect><rect transform="translate(0,30)" class="bar" x="118" width="50" y="112.13251071712833" height="13.867489282871674" style="fill: rgb(174, 191, 105);"></rect><rect transform="translate(0,30)" class="bar" x="173" width="50" y="107.06859427582002" height="18.93140572417998" style="fill: rgb(122, 191, 105);"></rect><rect transform="translate(0,30)" class="bar" x="228" width="50" y="80.71535027904096" height="45.28464972095904" style="fill: rgb(105, 191, 139);"></rect><rect transform="translate(0,30)" class="bar" x="283" width="50" y="71.49713977183339" height="54.50286022816661" style="fill: rgb(105, 191, 191);"></rect><rect transform="translate(0,30)" class="bar" x="338" width="50" y="0" height="126" style="fill: rgb(105, 139, 191);"></rect><rect transform="translate(0,30)" class="bar" x="393" width="50" y="104.31509520905965" height="21.68490479094035" style="fill: rgb(122, 105, 191);"></rect><rect transform="translate(0,30)" class="bar" x="448" width="50" y="108.4623515776637" height="17.537648422336304" style="fill: rgb(174, 105, 191);"></rect><rect transform="translate(0,30)" class="bar" x="503" width="50" y="60.388427828693466" height="65.61157217130653" style="fill: rgb(191, 105, 156);"></rect></g><g transform="translate(40,468)"><text x="-40" y="23" style="font-size: 10px; font-family: Arial, Helvetica;">travel</text><g class="y axis" style="font-size: 10px; font-family: Arial, Helvetica;" transform="translate(0,30)" fill="none" font-size="10" font-family="sans-serif" text-anchor="end"><path class="domain" stroke="#000" d="M-6,126.5H0.5V0.5H-6" style="shape-rendering: crispedges; fill: none; stroke: rgb(204, 204, 204);"></path><g class="tick" opacity="1" transform="translate(0,126.5)"><line stroke="#000" x2="-6" style="shape-rendering: crispedges; fill: none; stroke: rgb(204, 204, 204);"></line><text fill="#000" x="-9" dy="0.32em">0.00</text></g><g class="tick" opacity="1" transform="translate(0,105.2402894206467)"><line stroke="#000" x2="-6" style="shape-rendering: crispedges; fill: none; stroke: rgb(204, 204, 204);"></line><text fill="#000" x="-9" dy="0.32em">0.05</text></g><g class="tick" opacity="1" transform="translate(0,83.98057884129341)"><line stroke="#000" x2="-6" style="shape-rendering: crispedges; fill: none; stroke: rgb(204, 204, 204);"></line><text fill="#000" x="-9" dy="0.32em">0.10</text></g><g class="tick" opacity="1" transform="translate(0,62.72086826194012)"><line stroke="#000" x2="-6" style="shape-rendering: crispedges; fill: none; stroke: rgb(204, 204, 204);"></line><text fill="#000" x="-9" dy="0.32em">0.15</text></g><g class="tick" opacity="1" transform="translate(0,41.461157682586816)"><line stroke="#000" x2="-6" style="shape-rendering: crispedges; fill: none; stroke: rgb(204, 204, 204);"></line><text fill="#000" x="-9" dy="0.32em">0.20</text></g><g class="tick" opacity="1" transform="translate(0,20.20144710323352)"><line stroke="#000" x2="-6" style="shape-rendering: crispedges; fill: none; stroke: rgb(204, 204, 204);"></line><text fill="#000" x="-9" dy="0.32em">0.25</text></g></g><rect transform="translate(0,30)" class="bar" x="8" width="50" y="101.27332123385986" height="24.72667876614014" style="fill: rgb(191, 105, 105);"></rect><rect transform="translate(0,30)" class="bar" x="63" width="50" y="73.45580762195219" height="52.54419237804781" style="fill: rgb(191, 156, 105);"></rect><rect transform="translate(0,30)" class="bar" x="118" width="50" y="108.31388323280076" height="17.686116767199238" style="fill: rgb(174, 191, 105);"></rect><rect transform="translate(0,30)" class="bar" x="173" width="50" y="95.97998037207134" height="30.02001962792866" style="fill: rgb(122, 191, 105);"></rect><rect transform="translate(0,30)" class="bar" x="228" width="50" y="86.57468441176545" height="39.425315588234554" style="fill: rgb(105, 191, 139);"></rect><rect transform="translate(0,30)" class="bar" x="283" width="50" y="55.38178290479739" height="70.61821709520261" style="fill: rgb(105, 191, 191);"></rect><rect transform="translate(0,30)" class="bar" x="338" width="50" y="36.088432017799036" height="89.91156798220096" style="fill: rgb(105, 139, 191);"></rect><rect transform="translate(0,30)" class="bar" x="393" width="50" y="91.50104996170728" height="34.49895003829272" style="fill: rgb(122, 105, 191);"></rect><rect transform="translate(0,30)" class="bar" x="448" width="50" y="109.95251630976323" height="16.047483690236774" style="fill: rgb(174, 105, 191);"></rect><rect transform="translate(0,30)" class="bar" x="503" width="50" y="76.28956350594476" height="49.710436494055244" style="fill: rgb(191, 105, 156);"></rect></g><g transform="translate(40,624)"><text x="-40" y="23" style="font-size: 10px; font-family: Arial, Helvetica;">work</text><g class="y axis" style="font-size: 10px; font-family: Arial, Helvetica;" transform="translate(0,30)" fill="none" font-size="10" font-family="sans-serif" text-anchor="end"><path class="domain" stroke="#000" d="M-6,126.5H0.5V0.5H-6" style="shape-rendering: crispedges; fill: none; stroke: rgb(204, 204, 204);"></path><g class="tick" opacity="1" transform="translate(0,126.5)"><line stroke="#000" x2="-6" style="shape-rendering: crispedges; fill: none; stroke: rgb(204, 204, 204);"></line><text fill="#000" x="-9" dy="0.32em">0.00</text></g><g class="tick" opacity="1" transform="translate(0,105.2402894206467)"><line stroke="#000" x2="-6" style="shape-rendering: crispedges; fill: none; stroke: rgb(204, 204, 204);"></line><text fill="#000" x="-9" dy="0.32em">0.05</text></g><g class="tick" opacity="1" transform="translate(0,83.98057884129341)"><line stroke="#000" x2="-6" style="shape-rendering: crispedges; fill: none; stroke: rgb(204, 204, 204);"></line><text fill="#000" x="-9" dy="0.32em">0.10</text></g><g class="tick" opacity="1" transform="translate(0,62.72086826194012)"><line stroke="#000" x2="-6" style="shape-rendering: crispedges; fill: none; stroke: rgb(204, 204, 204);"></line><text fill="#000" x="-9" dy="0.32em">0.15</text></g><g class="tick" opacity="1" transform="translate(0,41.461157682586816)"><line stroke="#000" x2="-6" style="shape-rendering: crispedges; fill: none; stroke: rgb(204, 204, 204);"></line><text fill="#000" x="-9" dy="0.32em">0.20</text></g><g class="tick" opacity="1" transform="translate(0,20.20144710323352)"><line stroke="#000" x2="-6" style="shape-rendering: crispedges; fill: none; stroke: rgb(204, 204, 204);"></line><text fill="#000" x="-9" dy="0.32em">0.25</text></g></g><rect transform="translate(0,30)" class="bar" x="8" width="50" y="102.23362121977877" height="23.76637878022123" style="fill: rgb(191, 105, 105);"></rect><rect transform="translate(0,30)" class="bar" x="63" width="50" y="70.42909419306625" height="55.57090580693375" style="fill: rgb(191, 156, 105);"></rect><rect transform="translate(0,30)" class="bar" x="118" width="50" y="107.18268407790264" height="18.817315922097364" style="fill: rgb(174, 191, 105);"></rect><rect transform="translate(0,30)" class="bar" x="173" width="50" y="97.92729379777488" height="28.07270620222512" style="fill: rgb(122, 191, 105);"></rect><rect transform="translate(0,30)" class="bar" x="228" width="50" y="87.68703506476173" height="38.31296493523827" style="fill: rgb(105, 191, 139);"></rect><rect transform="translate(0,30)" class="bar" x="283" width="50" y="64.33695108239667" height="61.663048917603334" style="fill: rgb(105, 191, 191);"></rect><rect transform="translate(0,30)" class="bar" x="338" width="50" y="39.12985610151881" height="86.87014389848119" style="fill: rgb(105, 139, 191);"></rect><rect transform="translate(0,30)" class="bar" x="393" width="50" y="90.84039399674116" height="35.159606003258844" style="fill: rgb(122, 105, 191);"></rect><rect transform="translate(0,30)" class="bar" x="448" width="50" y="99.33340116725583" height="26.66659883274417" style="fill: rgb(174, 105, 191);"></rect><rect transform="translate(0,30)" class="bar" x="503" width="50" y="75.70842418298099" height="50.29157581701901" style="fill: rgb(191, 105, 156);"></rect></g><g class="x axis" style="font-size: 10px; font-family: Arial, Helvetica;" transform="translate(40,780)" fill="none" font-size="10" font-family="sans-serif" text-anchor="middle"><path class="domain" stroke="#000" d="M0.5,6V0.5H560.5V6" style="shape-rendering: crispedges; fill: none; stroke: rgb(204, 204, 204);"></path><g class="tick" opacity="1" transform="translate(33.5,0)"><line stroke="#000" y2="6" style="shape-rendering: crispedges; fill: none; stroke: rgb(204, 204, 204);"></line><text fill="#000" y="9" dy="0.71em">anger</text></g><g class="tick" opacity="1" transform="translate(88.5,0)"><line stroke="#000" y2="6" style="shape-rendering: crispedges; fill: none; stroke: rgb(204, 204, 204);"></line><text fill="#000" y="9" dy="0.71em">anticipation</text></g><g class="tick" opacity="1" transform="translate(143.5,0)"><line stroke="#000" y2="6" style="shape-rendering: crispedges; fill: none; stroke: rgb(204, 204, 204);"></line><text fill="#000" y="9" dy="0.71em">disgust</text></g><g class="tick" opacity="1" transform="translate(198.5,0)"><line stroke="#000" y2="6" style="shape-rendering: crispedges; fill: none; stroke: rgb(204, 204, 204);"></line><text fill="#000" y="9" dy="0.71em">fear</text></g><g class="tick" opacity="1" transform="translate(253.5,0)"><line stroke="#000" y2="6" style="shape-rendering: crispedges; fill: none; stroke: rgb(204, 204, 204);"></line><text fill="#000" y="9" dy="0.71em">joy</text></g><g class="tick" opacity="1" transform="translate(308.5,0)"><line stroke="#000" y2="6" style="shape-rendering: crispedges; fill: none; stroke: rgb(204, 204, 204);"></line><text fill="#000" y="9" dy="0.71em">negative</text></g><g class="tick" opacity="1" transform="translate(363.5,0)"><line stroke="#000" y2="6" style="shape-rendering: crispedges; fill: none; stroke: rgb(204, 204, 204);"></line><text fill="#000" y="9" dy="0.71em">positive</text></g><g class="tick" opacity="1" transform="translate(418.5,0)"><line stroke="#000" y2="6" style="shape-rendering: crispedges; fill: none; stroke: rgb(204, 204, 204);"></line><text fill="#000" y="9" dy="0.71em">sadness</text></g><g class="tick" opacity="1" transform="translate(473.5,0)"><line stroke="#000" y2="6" style="shape-rendering: crispedges; fill: none; stroke: rgb(204, 204, 204);"></line><text fill="#000" y="9" dy="0.71em">surprise</text></g><g class="tick" opacity="1" transform="translate(528.5,0)"><line stroke="#000" y2="6" style="shape-rendering: crispedges; fill: none; stroke: rgb(204, 204, 204);"></line><text fill="#000" y="9" dy="0.71em">trust</text></g></g></svg>